<svg id="Layer_1" data-name="Layer 1" xmlns="http://www.w3.org/2000/svg" width="1920" height="1080" viewBox="0 0 1920 1080"><defs><style>.cls-1,.cls-3,.cls-7{fill:none;}.cls-1,.cls-4,.cls-7{stroke:#e36293;}.cls-1,.cls-2,.cls-3,.cls-4,.cls-7{stroke-linecap:round;stroke-miterlimit:10;}.cls-1,.cls-3{stroke-width:10px;}.cls-2,.cls-5{fill:gray;}.cls-2,.cls-3{stroke:gray;}.cls-2,.cls-4{stroke-width:20px;}.cls-4,.cls-6{fill:#e36293;}.cls-7{stroke-width:7px;}</style></defs><title>Artboard 5</title><line class="cls-1" x1="958.93" y1="443.37" x2="958.73" y2="102.62"/><ellipse class="cls-2" cx="959.04" cy="899.37" rx="4.84" ry="5.08"/><line class="cls-3" x1="959.36" y1="897.57" x2="958.93" y2="428.94"/><ellipse class="cls-4" cx="958.96" cy="362.95" rx="3.86" ry="4.06"/><ellipse class="cls-4" cx="958.06" cy="220.3" rx="3.86" ry="4.06"/><ellipse class="cls-2" cx="958.91" cy="639.18" rx="3.86" ry="4.06"/><ellipse class="cls-2" cx="958.92" cy="498.01" rx="3.86" ry="4.06"/><ellipse class="cls-2" cx="958.9" cy="771.79" rx="3.86" ry="4.06"/><path class="cls-5" d="M495.06,853.86a41,41,0,0,1,6.74-.5c3.08,0,5.28.55,6.76,1.72a6.48,6.48,0,0,1,2.39,5.09,7.1,7.1,0,0,1-2,5.26c-1.7,1.61-4.21,2.35-7.16,2.37a12,12,0,0,1-1.7-.09l0,7.89-4.94,0Zm5,10a8.34,8.34,0,0,0,1.67.12c2.65,0,4.28-1.37,4.27-3.63,0-2-1.43-3.24-3.92-3.22a8.66,8.66,0,0,0-2.06.21Z"/><path class="cls-5" d="M514.08,853.73a44.5,44.5,0,0,1,6.64-.5c3.28,0,5.57.45,7.15,1.68a5.63,5.63,0,0,1,2.07,4.61,5.87,5.87,0,0,1-3.86,5.46v.1c1.54.61,2.4,2.08,3,4.1.71,2.49,1.42,5.36,1.85,6.21l-5.11,0a27.62,27.62,0,0,1-1.58-5.13c-.6-2.75-1.56-3.5-3.59-3.51h-1.51l.06,8.68-4.94,0Zm5,9.46h2c2.49,0,4-1.27,3.94-3.2s-1.39-3-3.68-3.06a13.37,13.37,0,0,0-2.26.18Z"/><path class="cls-5" d="M538.5,853.27l.15,22.07-5,0-.15-22.07Z"/><path class="cls-5" d="M548.18,875.27l-7.22-22,5.46,0,2.75,9.32c.77,2.61,1.48,5.13,2,7.88h.1c.54-2.65,1.21-5.28,1.94-7.8l2.76-9.45,5.3,0L554,875.23Z"/><path class="cls-5" d="M567.13,869.48l-1.53,5.67-5.18,0,6.6-22.12,6.55,0,7,22-5.37,0-1.74-5.66Zm5.57-3.77L571.3,861c-.41-1.31-.81-2.94-1.15-4.25h-.06c-.32,1.32-.64,3-1,4.27l-1.28,4.69Z"/><path class="cls-5" d="M584.92,857.14l-5.93,0,0-4.19,17-.12,0,4.19-6,.05.12,17.87-5,0Z"/><path class="cls-5" d="M605.19,852.81l13.49-.1,0,4.1-8.48.06,0,5,7.93,0,0,4.06-7.92.05.06,8.87-5,0Z"/><path class="cls-5" d="M635.66,865.34l-8.12,0,0,5.24,9.07-.06,0,4.09-14.08.1-.16-22.07,13.63-.09,0,4.09-8.61.06,0,4.58,8.12-.05Z"/><path class="cls-5" d="M639.93,852.86a44.5,44.5,0,0,1,6.64-.5c3.28,0,5.57.45,7.15,1.68a5.63,5.63,0,0,1,2.07,4.61,5.87,5.87,0,0,1-3.87,5.46v.1c1.54.61,2.4,2.08,3,4.1a63.53,63.53,0,0,0,1.85,6.21l-5.11,0a27.62,27.62,0,0,1-1.58-5.13c-.61-2.75-1.56-3.49-3.59-3.51H645l.06,8.68-4.94,0Zm5,9.47,2,0c2.49,0,4-1.27,3.94-3.2s-1.39-3-3.69-3.06a13.33,13.33,0,0,0-2.25.18Z"/><path class="cls-5" d="M659.49,874.51l-.15-22.07,5.83-.05,4.64,8.06a65.45,65.45,0,0,1,3.65,7.54h.1a80.64,80.64,0,0,1-.49-9.2l0-6.45,4.58,0,.15,22.07-5.23,0-4.78-8.49a80.2,80.2,0,0,1-3.88-7.76l-.1,0c.15,2.91.24,6,.26,9.63l.05,6.64Z"/><path class="cls-5" d="M686.94,852.24l.15,22.07-5,0-.15-22.07Z"/><path class="cls-5" d="M691.54,869.14a12.8,12.8,0,0,0,5.54,1.34c2.3,0,3.5-1,3.49-2.41s-1.06-2.16-3.72-3.09c-3.68-1.25-6.08-3.27-6.1-6.47,0-3.77,3.09-6.67,8.3-6.71a13.3,13.3,0,0,1,5.64,1.08l-1.08,4a10.59,10.59,0,0,0-4.63-1c-2.16,0-3.2,1-3.19,2.15,0,1.41,1.26,2,4.11,3.09,3.91,1.41,5.76,3.43,5.78,6.54,0,3.7-2.8,6.86-8.86,6.91a14.58,14.58,0,0,1-6.27-1.3Z"/><path class="cls-5" d="M722.16,864.74l-8.12.06,0,5.24,9.07-.07,0,4.1-14.08.09-.15-22.07,13.62-.09,0,4.09-8.61.06,0,4.59,8.12-.06Z"/><path class="cls-5" d="M726.42,852.27a43.26,43.26,0,0,1,6.65-.51c3.27,0,5.57.45,7.15,1.69a5.58,5.58,0,0,1,2.06,4.6,5.87,5.87,0,0,1-3.86,5.47v.09c1.55.61,2.41,2.08,3,4.11.7,2.48,1.41,5.36,1.84,6.21l-5.11,0a27.63,27.63,0,0,1-1.57-5.13c-.61-2.74-1.56-3.49-3.59-3.51h-1.51l.06,8.68-4.94,0Zm5,9.46h2c2.49,0,4-1.27,3.94-3.21s-1.4-3-3.69-3a12.44,12.44,0,0,0-2.26.18Z"/><path class="cls-5" d="M750.85,851.8l.15,22.08-5,0-.15-22.07Z"/><path class="cls-5" d="M755.32,873.84l-.15-22.07,5.83,0,4.64,8.06a65.45,65.45,0,0,1,3.65,7.54h.1a80.64,80.64,0,0,1-.49-9.2l0-6.45,4.59,0,.15,22.07-5.24,0-4.77-8.48a80.25,80.25,0,0,1-3.89-7.76l-.1,0c.16,2.91.24,6,.27,9.63l0,6.64Z"/><path class="cls-5" d="M796.34,872.55a24.93,24.93,0,0,1-7.36,1.29c-4,0-7-1-9-2.92a10.65,10.65,0,0,1-3.17-8c0-7.33,5.29-11.56,12.53-11.61a15.14,15.14,0,0,1,6.13,1l-1,4a12.16,12.16,0,0,0-5.15-.91c-4.16,0-7.28,2.4-7.25,7.18,0,4.56,2.9,7.22,7,7.19a6.69,6.69,0,0,0,2.45-.34l0-4.62-3.4,0,0-3.9,8.22-.06Z"/><path class="cls-5" d="M498.1,891.58l.06,8.55,9.9-.06-.06-8.56,2.67,0,.14,20.46h-2.67l-.07-9.59-9.89.07.07,9.59-2.65,0-.14-20.46Z"/><path class="cls-5" d="M532.8,901.35c.05,7-4.21,10.81-9.43,10.84-5.4,0-9.22-4.12-9.27-10.31,0-6.5,4-10.77,9.43-10.81S532.75,895.28,532.8,901.35Zm-15.87.45c0,4.37,2.42,8.26,6.58,8.24s6.53-3.9,6.5-8.55c0-4.06-2.19-8.3-6.59-8.27S516.9,897.3,516.93,901.8Z"/><path class="cls-5" d="M539.3,893.54l-6.23,0v-2.24l15.14-.11,0,2.25-6.25,0,.12,18.21-2.67,0Z"/><path class="cls-5" d="M561.14,902l-7.95,0,0,7.38,8.86-.06,0,2.21-11.5.08-.14-20.46,11-.07,0,2.22-8.41,0,0,6.47,8-.06Z"/><path class="cls-5" d="M565.41,891.11l2.64,0,.12,18.24,8.74-.06,0,2.22-11.38.08Z"/><path class="cls-5" d="M585.92,908.21a9.25,9.25,0,0,0,4.74,1.3c2.7,0,4.27-1.45,4.25-3.52,0-1.91-1.11-3-3.88-4-3.34-1.16-5.42-2.87-5.44-5.76,0-3.18,2.6-5.57,6.58-5.6a9.38,9.38,0,0,1,4.53,1l-.72,2.16a8.3,8.3,0,0,0-3.89-.94c-2.79,0-3.84,1.69-3.83,3.09,0,1.91,1.26,2.84,4.09,3.92,3.47,1.31,5.24,3,5.26,6,0,3.16-2.29,5.91-7.12,5.94a10.64,10.64,0,0,1-5.23-1.27Z"/><path class="cls-5" d="M605,893.09l-6.22,0,0-2.25,15.15-.1V893l-6.25.05.13,18.21h-2.67Z"/><path class="cls-5" d="M617.33,904.78l-2.08,6.44-2.73,0,6.81-20.5,3.18,0,7.12,20.41-2.82,0-2.23-6.42Zm6.69-2.11-2-5.88c-.47-1.33-.78-2.54-1.09-3.72h-.06c-.3,1.21-.62,2.46-1,3.71l-2,5.93Z"/><path class="cls-5" d="M634.79,911.09l-.06-8.68-6.54-11.73,3,0,2.92,5.62c.8,1.55,1.42,2.79,2.06,4.21h.07c.56-1.34,1.25-2.68,2-4.23l2.9-5.67,3,0-6.78,11.79.06,8.71Z"/><path class="cls-5" d="M642,914.78a44.46,44.46,0,0,0,1.77-7.27l3-.33a36.87,36.87,0,0,1-2.83,7.4Z"/><path class="cls-5" d="M655.55,911l0-1.64,2.08-2c5-4.83,7.27-7.39,7.28-10.37,0-2-1-3.85-3.94-3.83a6.79,6.79,0,0,0-4.18,1.7l-.86-1.87a8.62,8.62,0,0,1,5.57-2c4.25,0,6.06,2.88,6.08,5.7,0,3.64-2.6,6.6-6.73,10.64l-1.57,1.46v.07l8.86-.07,0,2.22Z"/><path class="cls-5" d="M671.73,907.77a8.83,8.83,0,0,0,4.38,1.21c3.43,0,4.47-2.21,4.43-3.85,0-2.76-2.55-3.93-5.12-3.91h-1.49l0-2h1.49c1.94,0,4.39-1,4.38-3.37,0-1.58-1-3-3.48-3a7.28,7.28,0,0,0-3.94,1.33l-.71-1.94a9.39,9.39,0,0,1,5.15-1.55c3.88,0,5.66,2.27,5.68,4.66,0,2-1.19,3.78-3.61,4.67v.06a5.14,5.14,0,0,1,4.43,5c0,3.16-2.41,5.94-7.15,6a10.12,10.12,0,0,1-5.14-1.3Z"/><path class="cls-5" d="M699.72,900.57c0,6.7-2.42,10.42-6.79,10.45-3.85,0-6.49-3.56-6.59-10.09s2.78-10.28,6.78-10.31C697.28,890.6,699.67,894.28,699.72,900.57Zm-10.71.37c0,5.13,1.63,8,4.06,8,2.73,0,4-3.22,4-8.25,0-4.86-1.3-8-4.06-8C690.65,892.71,689,895.57,689,900.94Z"/><path class="cls-5" d="M715.28,900.46c.05,6.71-2.41,10.43-6.78,10.46-3.86,0-6.49-3.57-6.6-10.1s2.78-10.27,6.79-10.3S715.24,894.18,715.28,900.46Zm-10.71.38c0,5.12,1.64,8,4.07,8,2.73,0,4-3.21,4-8.25,0-4.86-1.3-8-4.06-8C706.22,892.6,704.54,895.46,704.57,900.84Z"/><path class="cls-5" d="M725,890l2.64,0,.07,9.87h.09c.54-.8,1.08-1.53,1.59-2.2l6.2-7.72,3.28,0-7.34,8.73,8.06,11.72-3.13,0-6.8-10-1.93,2.26.05,7.8-2.64,0Z"/><path class="cls-5" d="M740.72,910.48l1.86-2.68a11.05,11.05,0,0,1-2.75-7.54c0-6.47,4-10.71,9.36-10.75a8.57,8.57,0,0,1,5.11,1.57l1.78-2.47,1.61,1.09-1.86,2.62a11,11,0,0,1,2.69,7.51c.05,7.13-4.32,10.77-9.21,10.8a8.69,8.69,0,0,1-5.2-1.6l-1.9,2.62ZM753,893a5.67,5.67,0,0,0-3.83-1.4c-4.46,0-6.68,4.17-6.65,8.45a10.28,10.28,0,0,0,1.55,5.48l0,0Zm-7.61,14a5.27,5.27,0,0,0,3.83,1.43c4.28,0,6.62-4,6.59-8.57a10.07,10.07,0,0,0-1.46-5.31h-.09Z"/><path class="cls-5" d="M761.88,890a26.22,26.22,0,0,1,4.82-.46c2.64,0,4.35.43,5.63,1.45a4.27,4.27,0,0,1,1.72,3.6,4.86,4.86,0,0,1-3.43,4.52v.06a5.27,5.27,0,0,1,4.26,5.1,5.54,5.54,0,0,1-1.7,4.11c-1.42,1.31-3.72,1.93-7.06,2a30.32,30.32,0,0,1-4.1-.22Zm2.7,8.36,2.4,0c2.79,0,4.42-1.49,4.4-3.46,0-2.39-1.84-3.32-4.51-3.3a11.33,11.33,0,0,0-2.34.19Zm.07,9.8a14.39,14.39,0,0,0,2.21.11c2.73,0,5.25-1,5.22-4,0-2.8-2.42-3.93-5.3-3.91h-2.19Z"/><path class="cls-5" d="M789,900.44l-8,0,.05,7.38,8.86-.07,0,2.22-11.5.08-.14-20.46,11-.07,0,2.21-8.41.06,0,6.47,8-.06Z"/><path class="cls-5" d="M793.4,910l-.15-20.46,2.89,0,6.62,10.31a55.45,55.45,0,0,1,3.72,6.62l.06,0c-.26-2.73-.34-5.22-.36-8.41l-.06-8.56h2.49l.14,20.45-2.67,0-6.57-10.34a65,65,0,0,1-3.87-6.8l-.09,0c.17,2.58.25,5,.27,8.44l.06,8.74Z"/><path class="cls-5" d="M815.86,889.38l.06,8.56,9.89-.06-.06-8.56,2.67,0,.15,20.45-2.67,0-.07-9.59-9.89.07.06,9.59-2.64,0-.14-20.46Z"/><path class="cls-5" d="M836.41,903.27l-2.08,6.44-2.73,0,6.81-20.5,3.18,0,7.12,20.41h-2.82l-2.23-6.42Zm6.69-2.11-2-5.88c-.47-1.33-.78-2.54-1.09-3.72h-.06c-.3,1.21-.62,2.46-1,3.71l-2,5.93Z"/><path class="cls-5" d="M854.6,909.57l-6.82-20.41,2.85,0,3.26,10.06c.9,2.76,1.68,5.24,2.24,7.63h.06c.56-2.37,1.39-5,2.28-7.63l3.39-10.13,2.83,0-7.18,20.5Z"/><path class="cls-5" d="M867,909.49,866.9,889l2.88,0,6.63,10.31a59.26,59.26,0,0,1,3.72,6.62l.06,0c-.27-2.73-.34-5.22-.36-8.41l-.06-8.56h2.48l.15,20.45-2.67,0-6.57-10.33a67.07,67.07,0,0,1-3.87-6.8l-.09,0c.17,2.58.24,5,.27,8.44l.06,8.74Z"/><path class="cls-5" d="M494.79,945.6v-1.51l1.91-1.89c4.61-4.45,6.69-6.81,6.7-9.55a3.24,3.24,0,0,0-3.63-3.53,6.18,6.18,0,0,0-3.85,1.57l-.79-1.73a7.94,7.94,0,0,1,5.13-1.88c3.91,0,5.58,2.64,5.6,5.24,0,3.36-2.39,6.09-6.2,9.8l-1.44,1.35v.06l8.16-.06,0,2Z"/><path class="cls-5" d="M521.14,936.13c0,6.18-2.23,9.61-6.26,9.64-3.55,0-6-3.29-6.07-9.3s2.56-9.47,6.25-9.49S521.1,930.35,521.14,936.13Zm-9.87.35c0,4.73,1.5,7.4,3.74,7.38,2.52,0,3.7-3,3.67-7.6,0-4.47-1.2-7.4-3.74-7.38C512.78,928.89,511.24,931.53,511.27,936.48Z"/><path class="cls-5" d="M528.69,929.48h-.06l-3.14,1.73-.49-1.87,4-2.15h2.1l.13,18.17H528.8Z"/><path class="cls-5" d="M537.54,940.69c0-2.29,1.35-3.92,3.58-4.89l0-.09a4.49,4.49,0,0,1-2.91-4.06c0-2.87,2.4-4.85,5.58-4.87,3.53,0,5.3,2.17,5.32,4.43a4.63,4.63,0,0,1-3,4.28v.08c2.27.88,3.68,2.46,3.69,4.67,0,3.16-2.67,5.3-6.14,5.33C539.87,945.59,537.56,943.34,537.54,940.69Zm9.79-.18c0-2.21-1.56-3.26-4-3.94-2.12.63-3.26,2-3.24,3.77a3.36,3.36,0,0,0,3.65,3.44C545.92,943.76,547.34,942.38,547.33,940.51Zm-6.83-9c0,1.82,1.39,2.79,3.49,3.33a3.58,3.58,0,0,0,2.74-3.32,2.82,2.82,0,0,0-3.09-2.94A2.89,2.89,0,0,0,540.5,931.47Z"/><path class="cls-5" d="M1025.49,723.5h5v9.76h.1c.49-.86,1-1.64,1.51-2.43l5-7.33h6.13l-7.31,9.39,7.69,12.68h-5.83l-5.4-9.53-1.9,2.33v7.2h-5Z"/><path class="cls-5" d="M1050.57,723.51v12.7c0,3.8,1.43,5.74,4,5.74s4.06-1.83,4.06-5.73V723.51h5v12.37c0,6.82-3.44,10.06-9.21,10.05-5.56,0-8.84-3.08-8.83-10.12V723.51Z"/><path class="cls-5" d="M1067.91,745.59V723.52h5.83l4.58,8.09a63.93,63.93,0,0,1,3.6,7.57h.1a81.25,81.25,0,0,1-.42-9.2v-6.45h4.59V745.6H1081l-4.71-8.52a82.82,82.82,0,0,1-3.83-7.79l-.1,0c.13,2.91.19,6,.19,9.63v6.64Z"/><path class="cls-5" d="M1090.67,740.46a12.67,12.67,0,0,0,5.53,1.38c2.3,0,3.51-1,3.51-2.39s-1-2.16-3.7-3.11c-3.67-1.28-6.06-3.31-6-6.52,0-3.77,3.14-6.65,8.35-6.64a13.5,13.5,0,0,1,5.63,1.11l-1.11,4a10.47,10.47,0,0,0-4.62-1.05c-2.16,0-3.21,1-3.21,2.13,0,1.4,1.24,2,4.09,3.11,3.9,1.44,5.73,3.47,5.73,6.58,0,3.7-2.86,6.85-8.91,6.84a14.43,14.43,0,0,1-6.26-1.34Z"/><path class="cls-5" d="M1112.45,727.73h-5.93v-4.19h17v4.19h-6v17.88h-5Z"/><path class="cls-5" d="M1131.11,723.55v12.71c0,3.8,1.43,5.73,4,5.73s4.06-1.83,4.06-5.73v-12.7h5v12.38c0,6.81-3.44,10-9.21,10-5.56,0-8.84-3.09-8.83-10.13V723.55Z"/><path class="cls-5" d="M1148.46,723.86a44,44,0,0,1,6.75-.46c4.19,0,6.91.76,9,2.37,2.29,1.7,3.73,4.42,3.73,8.32,0,4.22-1.55,7.13-3.68,8.93-2.32,1.94-5.86,2.85-10.18,2.85a43.91,43.91,0,0,1-5.67-.33Zm5,18a9.11,9.11,0,0,0,1.74.1c4.52,0,7.47-2.45,7.47-7.72,0-4.59-2.65-7-6.94-7a10.26,10.26,0,0,0-2.26.2Z"/><path class="cls-5" d="M1171.41,740.51a12.67,12.67,0,0,0,5.53,1.37c2.29,0,3.5-.94,3.5-2.38s-1-2.17-3.69-3.12c-3.67-1.28-6.06-3.31-6.06-6.52,0-3.76,3.15-6.64,8.36-6.64a13.48,13.48,0,0,1,5.63,1.12l-1.12,4a10.52,10.52,0,0,0-4.61-1.05c-2.17,0-3.21,1-3.21,2.13,0,1.41,1.24,2,4.09,3.11,3.89,1.45,5.72,3.48,5.72,6.59,0,3.7-2.85,6.84-8.91,6.84a14.51,14.51,0,0,1-6.25-1.35Z"/><path class="cls-5" d="M1193.19,727.78h-5.93v-4.19h17v4.2h-6v17.88h-5Z"/><path class="cls-5" d="M1211.88,723.6v22.07h-5V723.6Z"/><path class="cls-5" d="M1216.2,723.6h5v17.88H1230v4.19h-13.79Z"/><path class="cls-5" d="M1232.93,723.61h5v17.88h8.78v4.19h-13.79Z"/><path class="cls-5" d="M1254.67,723.62v22.07h-5V723.62Z"/><path class="cls-5" d="M1259,745.7V723.62h5.83l4.58,8.09a62.47,62.47,0,0,1,3.6,7.57h.1a81.54,81.54,0,0,1-.42-9.21v-6.45h4.59l0,22.08H1272l-4.72-8.51a84.22,84.22,0,0,1-3.82-7.8l-.1,0c.13,2.92.19,6,.19,9.63v6.65Z"/><path class="cls-5" d="M1300,744.7a24.26,24.26,0,0,1-7.37,1.24c-4,0-6.94-1-9-3a10.7,10.7,0,0,1-3.11-8c0-7.33,5.38-11.52,12.62-11.52a15.21,15.21,0,0,1,6.12,1.09l-1,4a12.29,12.29,0,0,0-5.14-1c-4.16,0-7.3,2.35-7.31,7.14,0,4.55,2.85,7.23,6.94,7.24a6.63,6.63,0,0,0,2.46-.33V737h-3.41v-3.9H1300Z"/><path class="cls-5" d="M1025.62,761.52h2.64v9.86h.09c.55-.79,1.1-1.52,1.61-2.18l6.26-7.68h3.28l-7.41,8.68,8,11.78h-3.12l-6.73-10-2,2.24V782h-2.64Z"/><path class="cls-5" d="M1041.14,782.11l1.89-2.67a11,11,0,0,1-2.7-7.56c0-6.46,4.1-10.68,9.44-10.68a8.56,8.56,0,0,1,5.1,1.62l1.79-2.46,1.61,1.09-1.88,2.61a11,11,0,0,1,2.63,7.53c0,7.13-4.4,10.74-9.29,10.74a8.76,8.76,0,0,1-5.19-1.64l-1.91,2.6Zm12.43-17.35a5.8,5.8,0,0,0-3.83-1.43c-4.46,0-6.71,4.12-6.71,8.4a10.37,10.37,0,0,0,1.51,5.5l0,0Zm-7.72,14a5.19,5.19,0,0,0,3.82,1.46c4.28,0,6.65-3.91,6.65-8.52a10,10,0,0,0-1.42-5.31h-.09Z"/><path class="cls-5" d="M1062.46,761.82a25,25,0,0,1,4.82-.42c2.64,0,4.34.45,5.62,1.49a4.28,4.28,0,0,1,1.69,3.61,4.85,4.85,0,0,1-3.46,4.49v.06a5.28,5.28,0,0,1,4.22,5.13,5.5,5.5,0,0,1-1.74,4.1c-1.42,1.3-3.73,1.91-7.07,1.9a31.28,31.28,0,0,1-4.1-.24Zm2.63,18.18a14.15,14.15,0,0,0,2.21.12c2.73,0,5.25-1,5.25-4,0-2.79-2.39-3.95-5.27-3.95h-2.19Zm0-9.8h2.4c2.79,0,4.43-1.46,4.43-3.43,0-2.4-1.82-3.34-4.49-3.34a11.36,11.36,0,0,0-2.33.18Z"/><path class="cls-5" d="M1089.49,772.42h-8v7.37h8.87V782h-11.5V761.55h11v2.22h-8.41v6.47h8Z"/><path class="cls-5" d="M1093.82,782V761.56h2.88l6.55,10.36a57,57,0,0,1,3.67,6.64l.06,0c-.24-2.74-.3-5.23-.29-8.41v-8.56h2.49V782h-2.67L1100,771.64a62.9,62.9,0,0,1-3.82-6.83l-.09,0c.15,2.58.21,5,.2,8.44V782Z"/><path class="cls-5" d="M1116.44,761.57v8.56h9.9v-8.56H1129V782h-2.67v-9.59h-9.9V782h-2.64V761.57Z"/><path class="cls-5" d="M1136.88,775.61l-2.13,6.43H1132l7-20.45h3.18l7,20.46h-2.82l-2.18-6.44Zm6.71-2.06-2-5.89c-.45-1.34-.76-2.55-1.06-3.74h-.06c-.3,1.22-.64,2.46-1,3.71l-2,5.91Z"/><path class="cls-5" d="M1155,782.05l-6.67-20.46h2.85l3.18,10.08c.88,2.76,1.64,5.25,2.19,7.65h.06c.57-2.36,1.43-4.94,2.34-7.61l3.46-10.11h2.83l-7.33,20.45Z"/><path class="cls-5" d="M1167.47,782.06V761.6h2.88l6.55,10.36a57,57,0,0,1,3.67,6.65l.06,0c-.24-2.74-.3-5.22-.3-8.41v-8.56h2.48v20.46h-2.67l-6.49-10.39a67.54,67.54,0,0,1-3.82-6.83l-.09,0c.15,2.58.21,5,.21,8.44v8.74Z"/><path class="cls-5" d="M1187.07,778.85a9.32,9.32,0,0,0,4.73,1.34c2.71,0,4.28-1.42,4.29-3.49,0-1.91-1.09-3-3.86-4.07-3.33-1.18-5.4-2.91-5.4-5.8,0-3.18,2.65-5.55,6.62-5.55a9.37,9.37,0,0,1,4.53,1l-.73,2.15a8.24,8.24,0,0,0-3.89-1c-2.79,0-3.85,1.66-3.85,3.06,0,1.91,1.24,2.85,4.06,4,3.46,1.34,5.22,3,5.22,6,0,3.16-2.34,5.89-7.17,5.89a10.55,10.55,0,0,1-5.22-1.31Z"/><path class="cls-5" d="M1208.84,761.62h2.64v9.86h.09c.55-.79,1.1-1.52,1.61-2.18l6.26-7.68h3.28l-7.41,8.68,8,11.78h-3.12L1213.42,772l-2,2.24v7.8h-2.64Z"/><path class="cls-5" d="M1227.92,761.64v12.11c0,4.58,2,6.52,4.76,6.52,3,0,5-2,5-6.52V761.64h2.67v11.93c0,6.28-3.31,8.86-7.74,8.86-4.19,0-7.35-2.4-7.34-8.75v-12Z"/><path class="cls-5" d="M1244.91,782.1V761.65h2.88l6.55,10.35a57,57,0,0,1,3.67,6.65l.06,0c-.24-2.73-.3-5.22-.3-8.41v-8.56h2.48v20.46h-2.67l-6.49-10.39a64.63,64.63,0,0,1-3.82-6.83l-.09,0c.15,2.57.21,5,.21,8.43v8.74Z"/><path class="cls-5" d="M1264.51,778.9a9.41,9.41,0,0,0,4.73,1.33c2.7,0,4.28-1.42,4.28-3.48s-1.09-3-3.85-4.07c-3.34-1.19-5.4-2.92-5.4-5.8,0-3.19,2.65-5.56,6.62-5.55a9.3,9.3,0,0,1,4.53,1l-.74,2.15a8.15,8.15,0,0,0-3.88-1c-2.79,0-3.85,1.67-3.86,3.06,0,1.92,1.25,2.86,4.07,3.95,3.46,1.34,5.22,3,5.22,6s-2.34,5.88-7.17,5.88a10.55,10.55,0,0,1-5.22-1.31Z"/><path class="cls-5" d="M1283.73,763.91h-6.22v-2.25h15.14v2.25h-6.25v18.21h-2.67Z"/><path class="cls-5" d="M1294.37,778.91a9.32,9.32,0,0,0,4.73,1.34c2.7,0,4.28-1.42,4.28-3.49,0-1.91-1.09-3-3.85-4.07-3.34-1.18-5.4-2.91-5.4-5.8,0-3.18,2.65-5.55,6.62-5.55a9.21,9.21,0,0,1,4.52,1l-.73,2.15a8.15,8.15,0,0,0-3.88-1c-2.79,0-3.86,1.67-3.86,3.06,0,1.91,1.25,2.86,4.07,3.95,3.46,1.34,5.22,3,5.21,6,0,3.16-2.33,5.89-7.16,5.89a10.66,10.66,0,0,1-5.22-1.31Z"/><path class="cls-5" d="M1309.7,761.68h2.64v9.87h.09c.54-.79,1.09-1.52,1.61-2.19l6.25-7.67h3.28l-7.41,8.68,8,11.77H1321l-6.73-10-1.94,2.25v7.8h-2.64Z"/><path class="cls-5" d="M1343.11,771.71c0,7-4.29,10.78-9.51,10.77-5.4,0-9.19-4.19-9.19-10.38,0-6.49,4-10.74,9.51-10.74S1343.11,765.64,1343.11,771.71Zm-15.87.33c0,4.37,2.36,8.29,6.52,8.29s6.56-3.85,6.56-8.49c0-4.07-2.12-8.32-6.52-8.32S1327.24,767.55,1327.24,772Z"/><path class="cls-5" d="M1346.54,761.7h2.64v18.24h8.74v2.21h-11.38Z"/><path class="cls-5" d="M1371.45,772.58h-8V780h8.87v2.21h-11.5V761.71h11.05v2.21h-8.41v6.46h8Z"/><path class="cls-5" d="M1373.84,785.91a44,44,0,0,0,1.82-7.26l3-.3a36.85,36.85,0,0,1-2.89,7.37Z"/><path class="cls-5" d="M1393.24,765h-.06l-3.43,1.84-.52-2,4.31-2.3h2.28v19.73h-2.58Z"/><path class="cls-5" d="M1403.64,779.12a8.88,8.88,0,0,0,4.37,1.25c3.43,0,4.49-2.18,4.46-3.82,0-2.76-2.52-3.95-5.09-3.95h-1.49v-2h1.49c1.94,0,4.4-1,4.4-3.34,0-1.58-1-3-3.46-3a7.23,7.23,0,0,0-4,1.3l-.69-1.94a9.35,9.35,0,0,1,5.16-1.52c3.88,0,5.64,2.31,5.64,4.71,0,2-1.22,3.76-3.65,4.64v.06a5.14,5.14,0,0,1,4.4,5.07c0,3.16-2.46,5.92-7.19,5.92a10,10,0,0,1-5.13-1.34Z"/><path class="cls-5" d="M1431.38,762.48v1.76l-8.6,18H1420l8.57-17.45v-.06h-9.65v-2.22Z"/><path class="cls-5" d="M1447.25,772.14c0,6.7-2.5,10.41-6.87,10.4-3.85,0-6.46-3.61-6.52-10.14s2.86-10.25,6.87-10.25C1444.89,762.15,1447.25,765.86,1447.25,772.14Zm-10.71.3c0,5.12,1.57,8,4,8,2.73,0,4-3.19,4-8.22,0-4.86-1.24-8-4-8C1438.24,764.21,1436.54,767.06,1436.54,772.44Z"/><path class="cls-5" d="M1457.08,761.76h2.64v9.87h.09c.55-.79,1.09-1.52,1.61-2.19l6.25-7.67H1471l-7.41,8.68,8,11.78h-3.13l-6.73-10-1.94,2.24v7.8h-2.64Z"/><path class="cls-5" d="M1472.61,782.35l1.88-2.67a11,11,0,0,1-2.7-7.56c0-6.46,4.11-10.68,9.45-10.68a8.6,8.6,0,0,1,5.1,1.61l1.79-2.45,1.61,1.09-1.89,2.61a11,11,0,0,1,2.64,7.53c0,7.13-4.41,10.74-9.29,10.74a8.79,8.79,0,0,1-5.19-1.64l-1.92,2.6ZM1485,765a5.77,5.77,0,0,0-3.82-1.43c-4.46,0-6.71,4.12-6.71,8.4a10.22,10.22,0,0,0,1.51,5.49l0,0Zm-7.72,14a5.28,5.28,0,0,0,3.83,1.46c4.28,0,6.65-3.91,6.65-8.52a9.94,9.94,0,0,0-1.43-5.31h-.09Z"/><path class="cls-5" d="M1493.92,762.06a25,25,0,0,1,4.83-.43c2.64,0,4.34.46,5.61,1.49a4.31,4.31,0,0,1,1.7,3.62,4.87,4.87,0,0,1-3.46,4.49v.06a5.27,5.27,0,0,1,4.21,5.13,5.53,5.53,0,0,1-1.73,4.1c-1.43,1.3-3.74,1.91-7.07,1.9a31.28,31.28,0,0,1-4.1-.24Zm2.63,18.18a14.38,14.38,0,0,0,2.22.12c2.73,0,5.25-1,5.25-4,0-2.79-2.4-3.95-5.28-3.95h-2.18Zm0-9.8H1499c2.8,0,4.44-1.46,4.44-3.43,0-2.4-1.82-3.34-4.49-3.34a11.49,11.49,0,0,0-2.34.18Z"/><path class="cls-5" d="M1521,772.66h-8V780h8.86v2.22h-11.5V761.79h11.05V764H1513v6.46h8Z"/><path class="cls-5" d="M1525.29,782.26V761.8h2.88l6.55,10.36a57,57,0,0,1,3.67,6.64l.06,0c-.24-2.73-.3-5.22-.3-8.4v-8.56h2.48v20.46H1538l-6.49-10.38a65.64,65.64,0,0,1-3.82-6.83l-.09,0c.15,2.58.21,5,.21,8.44v8.74Z"/><path class="cls-5" d="M1547.9,761.81v8.56h9.89v-8.56h2.67v20.46h-2.67v-9.6h-9.89v9.59h-2.64V761.81Z"/><path class="cls-5" d="M1568.35,775.85l-2.13,6.43h-2.73l7-20.45h3.19l7,20.46h-2.83l-2.18-6.44Zm6.71-2.06-2-5.89c-.46-1.34-.76-2.55-1.06-3.74h-.06c-.31,1.22-.64,2.46-1,3.71l-2,5.91Z"/><path class="cls-5" d="M1586.49,782.29l-6.66-20.46h2.85l3.18,10.08c.88,2.76,1.64,5.25,2.18,7.65h.06c.58-2.37,1.43-4.95,2.34-7.62l3.47-10.1h2.82l-7.32,20.45Z"/><path class="cls-5" d="M1598.93,782.3V761.84h2.89l6.55,10.36a58.38,58.38,0,0,1,3.66,6.65l.07,0c-.25-2.73-.31-5.21-.3-8.4v-8.56h2.49v20.46h-2.67l-6.49-10.38a63.85,63.85,0,0,1-3.82-6.83l-.09,0c.15,2.58.21,5,.2,8.44v8.74Z"/><path class="cls-5" d="M1024.54,815.52V814l1.93-1.87c4.64-4.42,6.74-6.76,6.77-9.5a3.25,3.25,0,0,0-3.6-3.56,6.19,6.19,0,0,0-3.86,1.54l-.78-1.73a7.9,7.9,0,0,1,5.14-1.85c3.91,0,5.56,2.69,5.56,5.29,0,3.36-2.44,6.07-6.27,9.75l-1.45,1.34v.06h8.16v2Z"/><path class="cls-5" d="M1051,806.25c0,6.18-2.3,9.59-6.32,9.59-3.55,0-6-3.33-6-9.34s2.63-9.45,6.32-9.45S1051,800.47,1051,806.25Zm-9.87.28c0,4.72,1.45,7.41,3.69,7.41,2.51,0,3.72-2.94,3.72-7.58,0-4.47-1.14-7.4-3.69-7.41C1042.66,799,1041.09,801.58,1041.09,806.53Z"/><path class="cls-5" d="M1058.56,799.66h0l-3.16,1.7-.48-1.87,4-2.12h2.1v18.17h-2.38Z"/><path class="cls-5" d="M1069,813.81a10.15,10.15,0,0,0,2-.08,6.9,6.9,0,0,0,3.81-1.76,7.94,7.94,0,0,0,2.4-4.84h-.08a5.34,5.34,0,0,1-4.28,2,5.27,5.27,0,0,1-5.36-5.57,6.22,6.22,0,0,1,6.21-6.45c3.71,0,6,3,6,7.66,0,4-1.34,6.79-3.13,8.53a9.12,9.12,0,0,1-5.29,2.42,11.26,11.26,0,0,1-2.26.14Zm.9-10.45c0,2.26,1.37,3.85,3.49,3.85a4,4,0,0,0,3.58-1.89,1.66,1.66,0,0,0,.22-.9c0-3.1-1.14-5.48-3.71-5.48C1071.36,798.94,1069.88,800.78,1069.88,803.36Z"/><path class="cls-5" d="M474.26,590.46h4.94v9.76h.1c.49-.85,1-1.64,1.5-2.42l5-7.33h6.12l-7.31,9.4,7.69,12.67h-5.83L481.1,603l-1.9,2.32v7.2h-4.94Z"/><path class="cls-5" d="M499.34,590.47v12.71c0,3.8,1.44,5.73,4,5.73s4.06-1.83,4.07-5.73v-12.7h5v12.38c0,6.81-3.45,10-9.21,10-5.57,0-8.84-3.09-8.84-10.12V590.47Z"/><path class="cls-5" d="M516.68,612.55V590.48h5.83l4.58,8.09a63.8,63.8,0,0,1,3.6,7.56h.1a79,79,0,0,1-.42-9.2v-6.45H535v22.07h-5.24L525,604a80.48,80.48,0,0,1-3.83-7.79l-.09,0c.13,2.92.19,6,.19,9.63v6.65Z"/><path class="cls-5" d="M539.44,607.43A12.67,12.67,0,0,0,545,608.8c2.29,0,3.5-.94,3.5-2.38s-1-2.17-3.7-3.12c-3.66-1.28-6-3.31-6-6.52,0-3.76,3.15-6.64,8.35-6.64a13.54,13.54,0,0,1,5.64,1.12l-1.12,4a10.51,10.51,0,0,0-4.62-1.06c-2.16,0-3.21,1-3.21,2.13,0,1.41,1.25,2,4.1,3.11,3.89,1.45,5.72,3.48,5.72,6.59,0,3.7-2.85,6.84-8.91,6.84a14.37,14.37,0,0,1-6.25-1.35Z"/><path class="cls-5" d="M561.21,594.7h-5.92v-4.19h17v4.19h-6v17.88h-5Z"/><path class="cls-5" d="M579.88,590.52v12.7c0,3.8,1.44,5.74,4,5.74s4.07-1.84,4.07-5.73V590.52h5V602.9c0,6.81-3.45,10.06-9.21,10.05-5.57,0-8.84-3.08-8.84-10.12V590.52Z"/><path class="cls-5" d="M597.23,590.82a45.41,45.41,0,0,1,6.75-.45c4.19,0,6.91.76,9,2.36,2.29,1.71,3.73,4.42,3.73,8.32,0,4.23-1.54,7.14-3.67,8.94-2.33,1.93-5.86,2.84-10.19,2.84a42,42,0,0,1-5.66-.33Zm5,18a9.94,9.94,0,0,0,1.74.1c4.52,0,7.46-2.46,7.47-7.73,0-4.58-2.65-7-6.94-7a10.26,10.26,0,0,0-2.26.2Z"/><path class="cls-5" d="M620.17,607.47a12.75,12.75,0,0,0,5.54,1.38c2.29,0,3.5-1,3.5-2.39s-1.05-2.16-3.7-3.11c-3.66-1.28-6-3.31-6-6.52,0-3.77,3.15-6.65,8.35-6.64a13.5,13.5,0,0,1,5.63,1.11l-1.11,4a10.47,10.47,0,0,0-4.62-1.05c-2.16,0-3.21,1-3.21,2.13,0,1.4,1.24,2,4.09,3.11,3.9,1.44,5.73,3.47,5.73,6.58,0,3.7-2.85,6.85-8.91,6.84a14.38,14.38,0,0,1-6.25-1.34Z"/><path class="cls-5" d="M642,594.75H636v-4.19h17v4.19h-6v17.88h-5Z"/><path class="cls-5" d="M660.65,590.56v22.07h-5V590.56Z"/><path class="cls-5" d="M665,590.57h5v17.88h8.78v4.19H665Z"/><path class="cls-5" d="M681.7,590.58h5v17.88h8.78v4.19H681.69Z"/><path class="cls-5" d="M703.44,590.59v22.07h-5V590.58Z"/><path class="cls-5" d="M707.75,612.66V590.59h5.83l4.58,8.09a63.93,63.93,0,0,1,3.6,7.57h.1a81.16,81.16,0,0,1-.43-9.2V590.6H726v22.07h-5.24l-4.71-8.52a82.82,82.82,0,0,1-3.83-7.79l-.1,0c.13,2.91.2,6,.2,9.63v6.64Z"/><path class="cls-5" d="M748.77,611.67a24.76,24.76,0,0,1-7.36,1.24c-4,0-6.95-1-9-3a10.65,10.65,0,0,1-3.11-8c0-7.34,5.38-11.52,12.61-11.52a15.21,15.21,0,0,1,6.12,1.08l-1,4a12.08,12.08,0,0,0-5.13-1c-4.16,0-7.31,2.35-7.31,7.13,0,4.55,2.84,7.24,6.94,7.24a6.57,6.57,0,0,0,2.45-.33v-4.61h-3.4V600h8.22Z"/><path class="cls-5" d="M474.38,628.76a27.88,27.88,0,0,1,5.07-.42c2.82,0,4.65.52,5.92,1.67A5.11,5.11,0,0,1,487,633.9a5.4,5.4,0,0,1-3.86,5.22v.09c1.58.54,2.52,2,3,4.13A32.25,32.25,0,0,0,487.7,649H485a27.18,27.18,0,0,1-1.36-4.89c-.6-2.82-1.7-3.88-4.09-4H477V649h-2.64Zm2.64,9.32h2.7c2.82,0,4.61-1.54,4.62-3.88,0-2.64-1.91-3.79-4.71-3.83a10.37,10.37,0,0,0-2.61.25Z"/><path class="cls-5" d="M501.29,639.37h-8v7.37h8.86V649H490.7V628.5h11.05v2.22h-8.4v6.47h8Z"/><path class="cls-5" d="M521.2,648.06a19.25,19.25,0,0,1-6.29,1.12,9.61,9.61,0,0,1-10.49-10.32c0-6.1,4.22-10.56,11.08-10.56a12.73,12.73,0,0,1,5.1.94L520,631.4a10.53,10.53,0,0,0-4.52-.88c-5,0-8.23,3.09-8.23,8.22s3.12,8.25,7.89,8.26a8.66,8.66,0,0,0,3.52-.55v-6.1h-4.16v-2.13h6.73Z"/><path class="cls-5" d="M527.88,628.52v12.11c0,4.58,2,6.52,4.76,6.53,3,0,5-2,5-6.53V628.52h2.67v11.92c0,6.29-3.32,8.86-7.75,8.86-4.18,0-7.34-2.4-7.34-8.74V628.52Z"/><path class="cls-5" d="M544.5,645.77a9.42,9.42,0,0,0,4.73,1.34c2.71,0,4.28-1.43,4.29-3.49s-1.1-3-3.86-4.07c-3.33-1.19-5.4-2.92-5.4-5.8,0-3.19,2.65-5.55,6.62-5.55a9.38,9.38,0,0,1,4.53,1l-.73,2.16a8.1,8.1,0,0,0-3.89-1c-2.79,0-3.85,1.67-3.86,3.07,0,1.91,1.25,2.85,4.07,3.94,3.46,1.34,5.22,3,5.22,6s-2.34,5.88-7.17,5.88a10.55,10.55,0,0,1-5.22-1.31Z"/><path class="cls-5" d="M558,652.72a43.86,43.86,0,0,0,1.83-7.25l3-.3a36.85,36.85,0,0,1-2.89,7.37Z"/><path class="cls-5" d="M577.4,631.76h-.06l-3.43,1.85-.52-2,4.32-2.3H580V649h-2.58Z"/><path class="cls-5" d="M587.8,645.94a8.88,8.88,0,0,0,4.37,1.25c3.43,0,4.49-2.18,4.46-3.82,0-2.76-2.51-4-5.09-4h-1.49v-2h1.49c1.94,0,4.4-1,4.4-3.34,0-1.58-1-3-3.46-3a7.2,7.2,0,0,0-3.94,1.31l-.7-1.95A9.46,9.46,0,0,1,593,629c3.88,0,5.64,2.31,5.64,4.71,0,2-1.21,3.76-3.64,4.64v.06a5.15,5.15,0,0,1,4.4,5.07c0,3.16-2.47,5.92-7.2,5.91a10.09,10.09,0,0,1-5.13-1.33Z"/><path class="cls-5" d="M614,631.18a9.81,9.81,0,0,0-2,.12,8,8,0,0,0-6.86,7h.09A5.89,5.89,0,0,1,610,636c3.49,0,6,2.52,5.94,6.38,0,3.61-2.46,7-6.56,6.94s-7-3.28-7-8.41a12.41,12.41,0,0,1,3.34-8.89,10.85,10.85,0,0,1,6.32-2.91A12.91,12.91,0,0,1,614,629Zm-.77,11.38c0-2.83-1.6-4.52-4.06-4.53a4.4,4.4,0,0,0-3.83,2.43,2.29,2.29,0,0,0-.3,1.18c.06,3.25,1.54,5.65,4.34,5.65C611.68,647.29,613.23,645.38,613.23,642.56Z"/><path class="cls-5" d="M631.41,639c0,6.7-2.49,10.41-6.86,10.4-3.86,0-6.47-3.61-6.52-10.14S620.88,629,624.89,629,631.41,632.67,631.41,639Zm-10.71.29c0,5.13,1.57,8,4,8,2.73,0,4-3.19,4-8.22,0-4.86-1.24-8.05-4-8.05C622.4,631,620.7,633.88,620.7,639.25Z"/><path class="cls-5" d="M641.25,628.58h2.64v9.87H644c.55-.79,1.1-1.52,1.61-2.19l6.26-7.67h3.28l-7.41,8.68,8,11.77h-3.12l-6.74-10-1.94,2.25V649h-2.64Z"/><path class="cls-5" d="M656.77,649.17l1.88-2.67a11.09,11.09,0,0,1-2.69-7.56c0-6.47,4.1-10.68,9.44-10.68a8.6,8.6,0,0,1,5.1,1.61l1.79-2.45,1.61,1.09L672,631.12a11,11,0,0,1,2.63,7.53c0,7.13-4.4,10.74-9.29,10.73a8.69,8.69,0,0,1-5.19-1.64l-1.91,2.61Zm12.42-17.36a5.74,5.74,0,0,0-3.82-1.42c-4.46,0-6.71,4.12-6.71,8.4a10.33,10.33,0,0,0,1.51,5.49l0,0Zm-7.71,14a5.23,5.23,0,0,0,3.82,1.46c4.28,0,6.65-3.91,6.65-8.52a10,10,0,0,0-1.42-5.32h-.09Z"/><path class="cls-5" d="M678.08,628.88a25.06,25.06,0,0,1,4.83-.43c2.64,0,4.34.46,5.61,1.49a4.28,4.28,0,0,1,1.7,3.62,4.87,4.87,0,0,1-3.46,4.49v.06a5.25,5.25,0,0,1,4.21,5.13,5.5,5.5,0,0,1-1.73,4.09c-1.42,1.31-3.73,1.91-7.07,1.91a31.28,31.28,0,0,1-4.1-.24Zm2.63,18.18a14.38,14.38,0,0,0,2.22.12c2.73,0,5.25-1,5.25-4,0-2.8-2.39-4-5.28-4h-2.18Zm0-9.81h2.4c2.79,0,4.43-1.46,4.43-3.43,0-2.4-1.82-3.34-4.49-3.34a11.56,11.56,0,0,0-2.34.18Z"/><path class="cls-5" d="M705.12,639.48h-8v7.37H706v2.21h-11.5V628.61h11.05v2.21h-8.41v6.46h8Z"/><path class="cls-5" d="M709.45,649.08V628.62h2.88L718.89,639a57.87,57.87,0,0,1,3.67,6.65l.06,0c-.24-2.73-.3-5.22-.3-8.4v-8.56h2.49v20.45h-2.67l-6.49-10.38a64.84,64.84,0,0,1-3.82-6.83l-.1,0c.15,2.58.21,5,.21,8.44v8.74Z"/><path class="cls-5" d="M732.07,628.63v8.56H742v-8.56h2.67V649.1H742V639.5h-9.9v9.59h-2.64V628.63Z"/><path class="cls-5" d="M752.51,642.66l-2.13,6.44h-2.73l7-20.46h3.19l7,20.46H762l-2.19-6.44Zm6.71-2-2-5.89c-.46-1.34-.76-2.55-1.06-3.74h-.06c-.31,1.22-.64,2.46-1,3.71l-2,5.91Z"/><path class="cls-5" d="M770.66,649.11,764,628.65h2.85L770,638.73c.88,2.76,1.64,5.25,2.18,7.65h.06c.58-2.37,1.43-5,2.35-7.62l3.46-10.1h2.82l-7.32,20.45Z"/><path class="cls-5" d="M783.1,649.12V628.66H786L792.54,639a57,57,0,0,1,3.67,6.64l.06,0c-.24-2.73-.3-5.22-.3-8.4v-8.56h2.49v20.45h-2.67l-6.49-10.38a66.68,66.68,0,0,1-3.82-6.83l-.09,0c.15,2.58.21,5,.21,8.44v8.74Z"/><path class="cls-5" d="M478.65,666.61h0l-3.16,1.7-.48-1.87,4-2.12H481v18.17h-2.38Z"/><path class="cls-5" d="M487.84,681a1.65,1.65,0,0,1,1.68-1.76,1.76,1.76,0,0,1,0,3.52A1.65,1.65,0,0,1,487.84,681Z"/><path class="cls-5" d="M500.22,682.5V663.66h2.66l6,9.54a53,53,0,0,1,3.38,6.12l.05,0c-.22-2.51-.27-4.81-.27-7.74v-7.89h2.3v18.84h-2.46l-6-9.57a60.82,60.82,0,0,1-3.52-6.29l-.08,0c.13,2.37.19,4.64.19,7.77v8Z"/><path class="cls-5" d="M534.72,672.9c0,6.49-4,9.92-8.76,9.92-5,0-8.47-3.86-8.46-9.56,0-6,3.72-9.9,8.75-9.89S534.72,667.31,534.72,672.9Zm-14.62.3c0,4,2.17,7.63,6,7.64s6-3.55,6-7.83c0-3.74-1.95-7.66-6-7.66S520.1,669.06,520.1,673.2Z"/><path class="cls-5" d="M542,682.52l-6.14-18.84h2.63l2.93,9.28c.81,2.55,1.51,4.84,2,7h.06c.53-2.18,1.31-4.56,2.15-7l3.19-9.3h2.6l-6.74,18.83Z"/><path class="cls-5" d="M563.22,673.7H555.9v6.79h8.16v2h-10.6V663.69h10.18v2H555.9v5.95h7.32Z"/><path class="cls-5" d="M583.1,674.27c-.14-2.63-.31-5.79-.28-8.14h-.08c-.65,2.21-1.43,4.56-2.38,7.16L577,682.43h-1.85l-3-9c-.9-2.65-1.65-5.08-2.18-7.32h-.05c-.06,2.35-.2,5.5-.37,8.33l-.51,8.08h-2.32L568,663.7h3.11l3.21,9.11c.78,2.32,1.42,4.39,1.89,6.35h.09c.47-1.9,1.15-4,2-6.35l3.36-9.11h3.1l1.16,18.84h-2.37Z"/><path class="cls-5" d="M589.69,664a24,24,0,0,1,4.45-.39c2.43,0,4,.42,5.17,1.37a4,4,0,0,1,1.56,3.33,4.45,4.45,0,0,1-3.19,4.13v.06a4.86,4.86,0,0,1,3.89,4.73A5.07,5.07,0,0,1,600,681c-1.31,1.2-3.44,1.76-6.51,1.76a28.7,28.7,0,0,1-3.78-.23Zm2.43,16.75a13.45,13.45,0,0,0,2,.11c2.51,0,4.83-.92,4.84-3.66,0-2.57-2.21-3.64-4.87-3.64h-2Zm0-9h2.21c2.57,0,4.08-1.34,4.08-3.16,0-2.21-1.67-3.07-4.13-3.08a10.82,10.82,0,0,0-2.16.17Z"/><path class="cls-5" d="M614.59,673.73h-7.32v6.8h8.16v2h-10.6V663.71H615v2h-7.75v6h7.32Z"/><path class="cls-5" d="M618.59,664a25.55,25.55,0,0,1,4.67-.38c2.6,0,4.28.47,5.45,1.54a4.69,4.69,0,0,1,1.48,3.58,5,5,0,0,1-3.55,4.8v.09c1.45.5,2.32,1.84,2.76,3.8a30.72,30.72,0,0,0,1.45,5.17h-2.51a24,24,0,0,1-1.26-4.5c-.55-2.6-1.56-3.58-3.77-3.67H621v8.17h-2.43Zm2.43,8.59h2.49c2.6,0,4.25-1.43,4.25-3.58,0-2.43-1.76-3.49-4.33-3.52a10.25,10.25,0,0,0-2.41.22Z"/><path class="cls-5" d="M645.17,674.11v1.82h-6.91v-1.81Z"/><path class="cls-5" d="M653.77,679.76a8.2,8.2,0,0,0,4,1.15c3.16,0,4.13-2,4.11-3.52,0-2.54-2.32-3.64-4.7-3.64h-1.37v-1.84h1.37c1.79,0,4.06-.92,4.06-3.08,0-1.45-.92-2.74-3.19-2.74a6.65,6.65,0,0,0-3.63,1.2l-.64-1.79a8.61,8.61,0,0,1,4.75-1.39c3.58,0,5.2,2.13,5.2,4.34,0,1.87-1.12,3.46-3.36,4.27v.06a4.72,4.72,0,0,1,4.05,4.67c0,2.9-2.27,5.45-6.63,5.44a9.18,9.18,0,0,1-4.72-1.23Z"/><path class="cls-5" d="M672.87,666.72h-.06l-3.16,1.7-.47-1.87,4-2.13h2.1V682.6h-2.38Z"/><path class="cls-5" d="M682.05,681.15a1.66,1.66,0,0,1,1.68-1.77,1.77,1.77,0,1,1-1.68,1.77Z"/><path class="cls-5" d="M694.44,664a34.2,34.2,0,0,1,5.18-.39c3.49,0,6,.81,7.63,2.35a8.71,8.71,0,0,1,2.65,6.77,10,10,0,0,1-2.72,7.32c-1.76,1.76-4.67,2.71-8.33,2.71a39.14,39.14,0,0,1-4.42-.23Zm2.43,16.66a15.53,15.53,0,0,0,2.46.14c5.2,0,8-2.9,8-8,0-4.45-2.48-7.27-7.62-7.27a13.77,13.77,0,0,0-2.85.25Z"/><path class="cls-5" d="M722.81,673.79h-7.32v6.8h8.16v2H713.05V663.78h10.17v2h-7.74v5.95h7.32Z"/><path class="cls-5" d="M740,682a12.17,12.17,0,0,1-5,.89c-5.31,0-9.31-3.36-9.31-9.54,0-5.9,4-9.89,9.85-9.89a10.14,10.14,0,0,1,4.47.84l-.59,2a8.78,8.78,0,0,0-3.8-.79c-4.41,0-7.35,2.82-7.35,7.77,0,4.61,2.65,7.58,7.23,7.58a9.84,9.84,0,0,0,4-.78Z"/><path class="cls-5" d="M752.77,673.8h-7.32v6.79h8.16v2H743V663.79h10.17v2h-7.74v6h7.32Z"/><path class="cls-5" d="M772.64,674.38c-.14-2.63-.3-5.79-.27-8.14h-.09c-.64,2.21-1.43,4.56-2.38,7.15l-3.33,9.15h-1.84l-3.05-9c-.89-2.66-1.64-5.09-2.17-7.33h-.06c-.06,2.35-.2,5.51-.37,8.33l-.5,8.08h-2.32l1.32-18.84h3.1l3.21,9.12c.78,2.32,1.43,4.39,1.9,6.34h.08c.48-1.9,1.15-4,2-6.34l3.36-9.11h3.1l1.17,18.84h-2.38Z"/><path class="cls-5" d="M779.24,664.06a23.13,23.13,0,0,1,4.44-.38c2.44,0,4,.42,5.18,1.37a4,4,0,0,1,1.56,3.33,4.46,4.46,0,0,1-3.19,4.13v.06a4.84,4.84,0,0,1,3.88,4.72,5.07,5.07,0,0,1-1.59,3.77c-1.32,1.21-3.44,1.76-6.52,1.76a28.91,28.91,0,0,1-3.77-.22Zm2.42,16.75a13.62,13.62,0,0,0,2,.11c2.52,0,4.84-.92,4.84-3.66,0-2.57-2.21-3.63-4.86-3.63h-2Zm0-9h2.21c2.57,0,4.08-1.34,4.08-3.16,0-2.2-1.68-3.07-4.14-3.07a11,11,0,0,0-2.15.16Z"/><path class="cls-5" d="M804.14,673.83h-7.32v6.79H805v2H794.38V663.82h10.17v2h-7.74v6h7.32Z"/><path class="cls-5" d="M808.14,664.08a25.48,25.48,0,0,1,4.67-.39c2.6,0,4.27.48,5.45,1.54a4.7,4.7,0,0,1,1.48,3.58,5,5,0,0,1-3.56,4.81v.08c1.46.51,2.32,1.85,2.77,3.8a30,30,0,0,0,1.45,5.18h-2.51a24,24,0,0,1-1.26-4.5c-.56-2.6-1.56-3.58-3.77-3.66h-2.29v8.16h-2.43Zm2.43,8.58h2.48c2.6,0,4.25-1.42,4.26-3.57,0-2.43-1.76-3.5-4.34-3.53a9.47,9.47,0,0,0-2.4.23Z"/><path class="cls-5" d="M828.22,682.68v-1.51l1.93-1.87c4.65-4.42,6.74-6.76,6.77-9.5,0-1.85-.89-3.55-3.6-3.55a6.13,6.13,0,0,0-3.86,1.53l-.78-1.73a8,8,0,0,1,5.14-1.84c3.92,0,5.57,2.68,5.56,5.28,0,3.36-2.43,6.07-6.26,9.75l-1.46,1.35v0h8.17v2Z"/><path class="cls-5" d="M854.64,673.41c0,6.18-2.3,9.59-6.32,9.59-3.55,0-6-3.33-6-9.34s2.63-9.45,6.32-9.45S854.65,667.63,854.64,673.41Zm-9.87.28c0,4.72,1.45,7.41,3.69,7.41,2.52,0,3.72-2.93,3.72-7.57,0-4.48-1.14-7.41-3.68-7.41C846.34,666.11,844.78,668.74,844.77,673.69Z"/><path class="cls-5" d="M862.25,666.82h-.06L859,668.53l-.47-1.88,4-2.12h2.09V682.7h-2.37Z"/><path class="cls-5" d="M872.66,681a10.25,10.25,0,0,0,2-.08,6.87,6.87,0,0,0,3.8-1.76,8,8,0,0,0,2.41-4.84h-.09a5.32,5.32,0,0,1-4.27,2,5.26,5.26,0,0,1-5.37-5.57,6.23,6.23,0,0,1,6.21-6.45c3.72,0,6,3,6,7.66,0,4-1.35,6.8-3.14,8.53a9.14,9.14,0,0,1-5.28,2.43,12,12,0,0,1-2.27.13Zm.9-10.45c0,2.26,1.37,3.86,3.49,3.86a4.07,4.07,0,0,0,3.58-1.9,1.66,1.66,0,0,0,.23-.9c0-3.1-1.14-5.48-3.72-5.48C875.05,666.1,873.56,668,873.56,670.52Z"/><path class="cls-5" d="M1026.8,448.86h13.49V453h-8.49v5h7.93v4.06h-7.92v8.88h-5Z"/><path class="cls-5" d="M1057.17,461.61h-8.12v5.24h9.07v4.09H1044V448.87h13.62V453h-8.61v4.58h8.12Z"/><path class="cls-5" d="M1061.53,449.17a44.2,44.2,0,0,1,6.65-.46c3.28,0,5.57.5,7.14,1.75a5.58,5.58,0,0,1,2,4.61,5.86,5.86,0,0,1-3.9,5.44v.09c1.54.63,2.39,2.1,2.94,4.13.69,2.49,1.37,5.37,1.8,6.23h-5.11a27.36,27.36,0,0,1-1.53-5.14c-.59-2.75-1.54-3.5-3.57-3.54h-1.51V471h-5Zm4.94,9.5h2c2.49,0,4-1.24,4-3.17s-1.37-3.05-3.66-3.08a12.09,12.09,0,0,0-2.26.16Z"/><path class="cls-5" d="M1080.94,471V448.89h5.83l4.58,8.09a63.13,63.13,0,0,1,3.59,7.57h.1a84,84,0,0,1-.42-9.21v-6.45h4.58V471H1094l-4.71-8.51a81.82,81.82,0,0,1-3.83-7.8l-.1,0c.13,2.92.2,6,.19,9.63V471Z"/><path class="cls-5" d="M1108.55,448.9V471h-5V448.9Z"/><path class="cls-5" d="M1113,465.83a12.67,12.67,0,0,0,5.53,1.38c2.29,0,3.5-.95,3.5-2.39s-1-2.16-3.7-3.11c-3.66-1.28-6-3.31-6-6.52,0-3.77,3.15-6.65,8.35-6.64a13.56,13.56,0,0,1,5.64,1.11l-1.12,4a10.43,10.43,0,0,0-4.62-1.05c-2.16,0-3.21,1-3.21,2.13,0,1.41,1.25,2,4.09,3.11,3.9,1.44,5.73,3.47,5.73,6.58,0,3.71-2.85,6.85-8.91,6.84A14.38,14.38,0,0,1,1112,470Z"/><path class="cls-5" d="M1143.67,461.66h-8.12v5.24h9.07V471h-14.08V448.91h13.62V453h-8.61v4.58h8.13Z"/><path class="cls-5" d="M1148,449.22a44.2,44.2,0,0,1,6.65-.46c3.27,0,5.57.5,7.14,1.74a5.61,5.61,0,0,1,2,4.62,5.87,5.87,0,0,1-3.9,5.43v.1c1.53.63,2.38,2.1,2.94,4.13.69,2.49,1.37,5.37,1.8,6.22h-5.11a27.89,27.89,0,0,1-1.54-5.14c-.58-2.75-1.53-3.51-3.56-3.54H1153V471H1148Zm4.94,9.5h2c2.49,0,4-1.25,4-3.18s-1.37-3-3.67-3.08a11.85,11.85,0,0,0-2.26.17Z"/><path class="cls-5" d="M1172.46,448.94V471h-5V448.93Z"/><path class="cls-5" d="M1176.77,471V448.94h5.83l4.58,8.09a63.87,63.87,0,0,1,3.59,7.57h.1a83.88,83.88,0,0,1-.42-9.2V449h4.58V471h-5.24l-4.71-8.52a82.82,82.82,0,0,1-3.83-7.79l-.1,0c.13,2.91.2,6,.19,9.62V471Z"/><path class="cls-5" d="M1217.79,470a24.83,24.83,0,0,1-7.37,1.24c-4,0-6.94-1-9-3a10.64,10.64,0,0,1-3.1-8c0-7.34,5.37-11.53,12.61-11.52a15.25,15.25,0,0,1,6.12,1.08l-1,4a12.23,12.23,0,0,0-5.14-1c-4.16,0-7.3,2.36-7.3,7.14,0,4.55,2.84,7.24,6.93,7.24a6.59,6.59,0,0,0,2.46-.33v-4.61h-3.4v-3.89h8.22Z"/><path class="cls-5" d="M1042.48,506.44a19.18,19.18,0,0,1-6.28,1.12,9.62,9.62,0,0,1-10.5-10.33c0-6.1,4.23-10.56,11.09-10.55a12.71,12.71,0,0,1,5.09.94l-.63,2.16a10.56,10.56,0,0,0-4.53-.89c-5,0-8.22,3.09-8.23,8.22s3.13,8.26,7.89,8.26a8.71,8.71,0,0,0,3.52-.54v-6.1h-4.15V496.6h6.74Z"/><path class="cls-5" d="M1049.82,500.92l-2.12,6.43H1045l7-20.45h3.18l7,20.46h-2.82l-2.18-6.44Zm6.71-2.06-2-5.89c-.45-1.34-.75-2.55-1.06-3.73h-.06c-.3,1.21-.64,2.45-1,3.7l-2,5.91Z"/><path class="cls-5" d="M1065.1,486.91h2.64v18.24h8.74v2.22h-11.38Z"/><path class="cls-5" d="M1079.42,486.91h2.64v18.24h8.74v2.22h-11.38Z"/><path class="cls-5" d="M1104.33,497.79h-7.95v7.37h8.86v2.21h-11.5V486.92h11v2.21h-8.41v6.46h7.95Z"/><path class="cls-5" d="M1108.67,487.2a27.8,27.8,0,0,1,5.07-.42c2.82,0,4.64.52,5.91,1.67a5.08,5.08,0,0,1,1.61,3.89,5.37,5.37,0,0,1-3.86,5.22v.09c1.58.55,2.52,2,3,4.13a32.55,32.55,0,0,0,1.57,5.61h-2.73a26.58,26.58,0,0,1-1.36-4.89c-.61-2.82-1.7-3.88-4.1-4h-2.49v8.87h-2.64Zm2.63,9.32h2.7c2.83,0,4.62-1.54,4.62-3.88,0-2.64-1.91-3.79-4.7-3.83a10.92,10.92,0,0,0-2.61.24Z"/><path class="cls-5" d="M1127.63,486.94V507.4H1125V486.94Z"/><path class="cls-5" d="M1141.32,487v12.11c0,4.58,2,6.52,4.76,6.52,3,0,5-2,5-6.52V487h2.67v11.92c0,6.28-3.32,8.86-7.75,8.86-4.19,0-7.34-2.4-7.34-8.75V487Z"/><path class="cls-5" d="M1158.31,487.23a38.28,38.28,0,0,1,5.62-.42c3.79,0,6.49.88,8.28,2.55a9.43,9.43,0,0,1,2.88,7.35,10.82,10.82,0,0,1-2.95,8c-1.91,1.91-5.07,2.94-9,2.94a42.89,42.89,0,0,1-4.8-.25Zm2.63,18.09a16.89,16.89,0,0,0,2.67.15c5.65,0,8.72-3.15,8.72-8.67,0-4.83-2.7-7.89-8.28-7.9a15.2,15.2,0,0,0-3.1.27Z"/><path class="cls-5" d="M1181.65,489.21h-6.23V487h15.14v2.25h-6.25v18.21h-2.67Z"/><path class="cls-5" d="M1192.84,487.25a27.88,27.88,0,0,1,5.07-.42c2.83,0,4.65.52,5.92,1.67a5.1,5.1,0,0,1,1.61,3.88,5.38,5.38,0,0,1-3.86,5.22v.09c1.58.55,2.52,2,3,4.13a32.17,32.17,0,0,0,1.58,5.62h-2.74a27.46,27.46,0,0,1-1.36-4.89c-.6-2.82-1.7-3.89-4.09-4h-2.49v8.86h-2.64Zm2.64,9.32h2.7c2.82,0,4.61-1.55,4.62-3.88,0-2.64-1.91-3.8-4.71-3.83a11,11,0,0,0-2.61.24Z"/><path class="cls-5" d="M1213.38,507.44v-8.68L1206.92,487h3l2.88,5.64c.79,1.55,1.39,2.79,2,4.22h.06c.58-1.33,1.28-2.67,2.07-4.22l2.94-5.64h3l-6.87,11.74v8.71Z"/><path class="cls-5" d="M1225,487h2.64v9.86h.1c.54-.79,1.09-1.52,1.61-2.19l6.25-7.67h3.28l-7.41,8.68,8,11.78h-3.12l-6.73-10-1.95,2.24v7.8H1225Z"/><path class="cls-5" d="M1240.17,511.19a43.15,43.15,0,0,0,1.82-7.25l3-.3a37.1,37.1,0,0,1-2.89,7.37Z"/><path class="cls-5" d="M1253.76,507.46v-1.63l2.09-2c5-4.79,7.32-7.34,7.35-10.31,0-2-1-3.86-3.91-3.86a6.72,6.72,0,0,0-4.19,1.67l-.85-1.88a8.63,8.63,0,0,1,5.58-2c4.25,0,6,2.91,6,5.74,0,3.64-2.64,6.58-6.8,10.59l-1.58,1.45v.06h8.86v2.21Z"/><path class="cls-5" d="M1269.33,507.47v-1.63l2.1-2c5-4.79,7.32-7.34,7.35-10.31,0-2-1-3.86-3.92-3.86a6.74,6.74,0,0,0-4.19,1.67l-.84-1.88a8.59,8.59,0,0,1,5.58-2c4.25,0,6,2.91,6,5.74,0,3.64-2.65,6.58-6.81,10.58l-1.58,1.46v.06h8.87v2.21Z"/><path class="cls-5" d="M1298,497.41c0,6.71-2.49,10.41-6.86,10.41-3.86,0-6.46-3.61-6.52-10.14s2.86-10.26,6.86-10.25C1295.65,487.43,1298,491.13,1298,497.41Zm-10.71.3c0,5.13,1.57,8,4,8.05,2.73,0,4-3.19,4-8.23,0-4.85-1.24-8-4-8C1289,489.49,1287.3,492.34,1287.3,497.71Z"/><path class="cls-5" d="M1313.58,497.42c0,6.71-2.49,10.41-6.86,10.41-3.86,0-6.47-3.62-6.52-10.14s2.85-10.26,6.86-10.26C1311.22,487.44,1313.58,491.14,1313.58,497.42Zm-10.71.3c0,5.13,1.57,8,4,8,2.73,0,4-3.18,4-8.22,0-4.85-1.24-8-4-8C1304.57,489.5,1302.87,492.35,1302.87,497.72Z"/><path class="cls-5" d="M1323.42,487.05h2.64v9.86h.09c.55-.79,1.09-1.51,1.61-2.18l6.26-7.68h3.28l-7.41,8.67,8,11.78h-3.13L1328,497.46l-1.94,2.25v7.8h-2.64Z"/><path class="cls-5" d="M1339.86,487.33a25.91,25.91,0,0,1,4.83-.42c2.64,0,4.34.46,5.61,1.49A4.29,4.29,0,0,1,1352,492a4.87,4.87,0,0,1-3.46,4.49v.06a5.28,5.28,0,0,1,4.21,5.13,5.53,5.53,0,0,1-1.73,4.1c-1.43,1.3-3.73,1.91-7.07,1.91a30.89,30.89,0,0,1-4.1-.25Zm2.63,18.18a14.38,14.38,0,0,0,2.22.12c2.73,0,5.25-1,5.25-4,0-2.79-2.4-4-5.28-4h-2.18Zm0-9.8h2.39c2.8,0,4.44-1.45,4.44-3.43,0-2.4-1.82-3.34-4.49-3.34a11.49,11.49,0,0,0-2.34.18Z"/><path class="cls-5" d="M1359,487.07v8.56h9.9v-8.56h2.67v20.45h-2.67v-9.59h-9.9v9.59h-2.64V487.07Z"/><path class="cls-5" d="M1036.7,524.78h-6.93l-.71,4.67a9.38,9.38,0,0,1,1.49-.11,7.6,7.6,0,0,1,3.91,1,5.18,5.18,0,0,1,2.6,4.67c0,3.55-2.83,6.2-6.77,6.2a8.88,8.88,0,0,1-4.53-1.12l.62-1.87a8.18,8.18,0,0,0,3.88,1,4,4,0,0,0,4.31-3.94c0-2.34-1.59-4-5.23-4a19.55,19.55,0,0,0-2.51.19l1.17-8.72h8.7Z"/><path class="cls-5" d="M1040.38,539.43a1.66,1.66,0,0,1,1.68-1.76,1.77,1.77,0,0,1,0,3.53A1.66,1.66,0,0,1,1040.38,539.43Z"/><path class="cls-5" d="M1052.76,540.89V522.05h2.65l6,9.54a55.41,55.41,0,0,1,3.38,6.12l.05,0c-.22-2.52-.28-4.81-.27-7.75v-7.88h2.29V540.9h-2.46l-6-9.56A59.77,59.77,0,0,1,1055,525l-.09,0c.14,2.38.2,4.64.19,7.77v8Z"/><path class="cls-5" d="M1087.25,531.3c0,6.48-3.94,9.92-8.75,9.91-5,0-8.47-3.86-8.47-9.56,0-6,3.73-9.89,8.76-9.89S1087.26,525.71,1087.25,531.3Zm-14.62.3c0,4,2.18,7.63,6,7.63s6-3.55,6-7.82c0-3.75-2-7.66-6-7.67S1072.64,527.46,1072.63,531.6Z"/><path class="cls-5" d="M1094.54,540.92l-6.14-18.85H1091l2.93,9.29c.81,2.54,1.51,4.83,2,7h0c.54-2.18,1.32-4.55,2.16-7l3.19-9.31h2.6l-6.75,18.84Z"/><path class="cls-5" d="M1115.76,532.09h-7.32v6.79h8.16v2H1106V522.08h10.18v2h-7.74v6h7.32Z"/><path class="cls-5" d="M1135.63,532.66c-.14-2.62-.3-5.78-.27-8.13h-.09c-.64,2.21-1.42,4.56-2.38,7.15l-3.33,9.14h-1.84l-3-9c-.89-2.66-1.64-5.09-2.17-7.33h-.06c0,2.35-.2,5.51-.36,8.33l-.51,8.08h-2.32l1.32-18.84h3.1l3.21,9.12c.79,2.32,1.43,4.39,1.9,6.34h.09c.47-1.9,1.14-4,2-6.34l3.36-9.11h3.11l1.16,18.84h-2.38Z"/><path class="cls-5" d="M1142.23,522.35a23.89,23.89,0,0,1,4.45-.39c2.43,0,4,.43,5.17,1.38a3.92,3.92,0,0,1,1.56,3.32,4.47,4.47,0,0,1-3.19,4.14v.06a4.83,4.83,0,0,1,3.88,4.72,5.11,5.11,0,0,1-1.59,3.78c-1.32,1.2-3.44,1.75-6.51,1.75a29,29,0,0,1-3.78-.22Zm2.42,16.75a13.62,13.62,0,0,0,2,.11c2.52,0,4.84-.92,4.84-3.66,0-2.57-2.2-3.63-4.86-3.63h-2Zm0-9h2.21c2.57,0,4.08-1.34,4.08-3.16,0-2.2-1.67-3.07-4.13-3.07a11,11,0,0,0-2.16.16Z"/><path class="cls-5" d="M1167.13,532.12h-7.32v6.79H1168v2h-10.59V522.11h10.18v2h-7.74v6h7.32Z"/><path class="cls-5" d="M1171.13,522.37a25.48,25.48,0,0,1,4.67-.39c2.6,0,4.28.48,5.45,1.54a4.7,4.7,0,0,1,1.48,3.58,5,5,0,0,1-3.56,4.81V532c1.46.5,2.32,1.85,2.77,3.8a29.46,29.46,0,0,0,1.45,5.17h-2.51a24,24,0,0,1-1.26-4.5c-.56-2.6-1.56-3.58-3.77-3.66h-2.29V541h-2.43Zm2.43,8.58H1176c2.61,0,4.26-1.42,4.26-3.57,0-2.43-1.76-3.5-4.33-3.53a9.51,9.51,0,0,0-2.41.23Z"/><path class="cls-5" d="M1197.71,532.5v1.82h-6.9V532.5Z"/><path class="cls-5" d="M1216.58,524.88h-6.94l-.7,4.67a9.24,9.24,0,0,1,1.48-.11,7.61,7.61,0,0,1,3.92,1,5.18,5.18,0,0,1,2.59,4.67c0,3.55-2.82,6.2-6.77,6.2a8.84,8.84,0,0,1-4.52-1.12l.61-1.88a8.14,8.14,0,0,0,3.89,1,4,4,0,0,0,4.3-3.94c0-2.34-1.59-4-5.22-4a18,18,0,0,0-2.52.19l1.18-8.72h8.7Z"/><path class="cls-5" d="M1220.25,539.53a1.66,1.66,0,0,1,1.68-1.76,1.76,1.76,0,1,1-1.68,1.76Z"/><path class="cls-5" d="M1232.65,522.4a35.29,35.29,0,0,1,5.17-.39c3.49,0,6,.82,7.63,2.36a8.7,8.7,0,0,1,2.65,6.76,10,10,0,0,1-2.72,7.33c-1.76,1.76-4.67,2.7-8.33,2.7a39.4,39.4,0,0,1-4.42-.22Zm2.42,16.67a15.53,15.53,0,0,0,2.46.14c5.2,0,8-2.91,8-8,0-4.45-2.48-7.27-7.62-7.28a13.77,13.77,0,0,0-2.85.25Z"/><path class="cls-5" d="M1261,532.17h-7.33V539h8.16v2h-10.59V522.16h10.17v2h-7.74v6H1261Z"/><path class="cls-5" d="M1278.17,540.4a11.93,11.93,0,0,1-5,.89c-5.31,0-9.31-3.35-9.3-9.53,0-5.9,4-9.9,9.84-9.89a10,10,0,0,1,4.47.84l-.59,2a8.79,8.79,0,0,0-3.8-.78c-4.41,0-7.35,2.82-7.35,7.76,0,4.62,2.65,7.58,7.23,7.58a9.67,9.67,0,0,0,4-.78Z"/><path class="cls-5" d="M1291,532.19h-7.32V539h8.16v2h-10.59V522.18h10.17v2h-7.74v5.95H1291Z"/><path class="cls-5" d="M1310.84,532.76c-.14-2.63-.3-5.79-.27-8.13h-.09c-.64,2.2-1.42,4.55-2.38,7.15l-3.33,9.14h-1.84l-3-9c-.89-2.66-1.64-5.09-2.17-7.33h-.06c-.06,2.35-.2,5.51-.37,8.33l-.5,8.08h-2.32l1.32-18.84h3.1l3.21,9.11c.78,2.32,1.43,4.39,1.9,6.35h.08c.48-1.9,1.15-4,2-6.35l3.36-9.11h3.11l1.16,18.84h-2.38Z"/><path class="cls-5" d="M1317.44,522.45a23.89,23.89,0,0,1,4.45-.39c2.43,0,4,.42,5.17,1.37a4,4,0,0,1,1.56,3.33,4.47,4.47,0,0,1-3.19,4.14V531a4.85,4.85,0,0,1,3.88,4.73,5.07,5.07,0,0,1-1.59,3.77c-1.32,1.2-3.44,1.76-6.52,1.76a26.87,26.87,0,0,1-3.77-.23Zm2.42,16.75a13.62,13.62,0,0,0,2,.11c2.52,0,4.84-.92,4.84-3.66,0-2.57-2.2-3.64-4.86-3.64h-2Zm0-9h2.21c2.57,0,4.08-1.34,4.08-3.16,0-2.21-1.68-3.07-4.14-3.08a10.69,10.69,0,0,0-2.15.17Z"/><path class="cls-5" d="M1342.34,532.22H1335V539h8.16v2h-10.59V522.21h10.17v2H1335v6h7.32Z"/><path class="cls-5" d="M1346.34,522.47a24.63,24.63,0,0,1,4.67-.39c2.6,0,4.27.47,5.45,1.54a4.69,4.69,0,0,1,1.48,3.58,5,5,0,0,1-3.56,4.8v.09c1.46.5,2.32,1.84,2.77,3.8a29.75,29.75,0,0,0,1.45,5.17h-2.52a25.12,25.12,0,0,1-1.25-4.5c-.56-2.6-1.56-3.58-3.77-3.66h-2.29v8.17h-2.43Zm2.43,8.58h2.48c2.6,0,4.25-1.42,4.26-3.58,0-2.43-1.76-3.49-4.34-3.52a10.14,10.14,0,0,0-2.4.22Z"/><path class="cls-5" d="M1366.42,541.07v-1.51l1.93-1.87c4.65-4.42,6.75-6.77,6.77-9.5a3.24,3.24,0,0,0-3.6-3.56,6.19,6.19,0,0,0-3.86,1.54l-.78-1.74a8,8,0,0,1,5.15-1.84c3.91,0,5.56,2.69,5.56,5.29,0,3.35-2.44,6.06-6.27,9.75l-1.46,1.34V539H1378v2Z"/><path class="cls-5" d="M1392.84,531.8c0,6.18-2.3,9.59-6.32,9.59-3.55,0-6-3.33-6-9.35s2.64-9.44,6.33-9.44S1392.85,526,1392.84,531.8Zm-9.87.27c0,4.73,1.45,7.41,3.69,7.41,2.52,0,3.72-2.93,3.72-7.57,0-4.47-1.14-7.41-3.68-7.41C1384.54,524.5,1383,527.13,1383,532.07Z"/><path class="cls-5" d="M1400.45,525.21h-.06l-3.16,1.7-.47-1.87,4-2.12h2.09v18.17h-2.37Z"/><path class="cls-5" d="M1410.86,539.36a11.12,11.12,0,0,0,2-.08,6.94,6.94,0,0,0,3.8-1.76,8,8,0,0,0,2.41-4.84H1419a5.45,5.45,0,0,1-9.64-3.61,6.22,6.22,0,0,1,6.21-6.45c3.72,0,6,3,6,7.66,0,4-1.35,6.79-3.14,8.52a9.07,9.07,0,0,1-5.28,2.43,11.35,11.35,0,0,1-2.27.14Zm.9-10.46c0,2.27,1.37,3.86,3.49,3.86a4.06,4.06,0,0,0,3.58-1.89,1.66,1.66,0,0,0,.23-.9c0-3.1-1.14-5.48-3.72-5.48C1413.25,524.49,1411.76,526.33,1411.76,528.9Z"/><path class="cls-6" d="M585.2,314h4.94v9.76h.1c.49-.85,1-1.64,1.51-2.43l5-7.33h6.12l-7.3,9.39L603.26,336h-5.82l-5.4-9.53-1.9,2.32V336h-4.94Z"/><path class="cls-6" d="M610.28,314v12.7c0,3.8,1.44,5.74,4,5.74s4.06-1.83,4.06-5.73V314h5v12.37c0,6.81-3.45,10.05-9.21,10.05-5.57,0-8.84-3.08-8.84-10.12V314Z"/><path class="cls-6" d="M627.62,336V314h5.83l4.58,8.09a63.93,63.93,0,0,1,3.6,7.57h.1a79.2,79.2,0,0,1-.42-9.2V314h4.58v22.07h-5.24l-4.71-8.52a79.45,79.45,0,0,1-3.82-7.8l-.1,0c.13,2.91.19,6,.19,9.62V336Z"/><path class="cls-6" d="M650.38,330.91a12.67,12.67,0,0,0,5.53,1.38c2.29,0,3.5-1,3.5-2.39s-1-2.16-3.69-3.11c-3.67-1.28-6.06-3.31-6.06-6.52,0-3.77,3.15-6.65,8.36-6.65a13.68,13.68,0,0,1,5.63,1.12l-1.12,4a10.38,10.38,0,0,0-4.61-1c-2.17,0-3.21,1-3.21,2.12,0,1.41,1.24,2,4.09,3.12,3.89,1.44,5.72,3.47,5.72,6.58,0,3.7-2.85,6.84-8.91,6.84a14.53,14.53,0,0,1-6.25-1.34Z"/><path class="cls-6" d="M672.16,318.18h-5.93V314h17v4.19h-6v17.88h-5Z"/><path class="cls-6" d="M690.82,314v12.71c0,3.8,1.44,5.73,4,5.73s4.06-1.83,4.06-5.73V314h5v12.38c0,6.81-3.45,10.05-9.21,10.05-5.57,0-8.84-3.09-8.84-10.13V314Z"/><path class="cls-6" d="M708.17,314.31a44,44,0,0,1,6.75-.46c4.19,0,6.91.76,9,2.37,2.3,1.7,3.73,4.42,3.73,8.32,0,4.22-1.54,7.13-3.67,8.93-2.33,1.93-5.86,2.85-10.18,2.85a45.69,45.69,0,0,1-5.67-.33Zm5,18a9.11,9.11,0,0,0,1.74.1c4.52,0,7.47-2.45,7.47-7.72,0-4.59-2.65-7-6.94-7a10.26,10.26,0,0,0-2.26.2Z"/><path class="cls-6" d="M731.11,331a12.89,12.89,0,0,0,5.54,1.37c2.29,0,3.5-.94,3.5-2.38s-1-2.17-3.7-3.12c-3.66-1.28-6.05-3.31-6.05-6.52,0-3.76,3.15-6.64,8.35-6.64a13.45,13.45,0,0,1,5.63,1.12l-1.11,4a10.61,10.61,0,0,0-4.62-1.05c-2.16,0-3.21,1-3.21,2.13,0,1.41,1.25,2,4.09,3.11,3.9,1.45,5.73,3.48,5.73,6.59,0,3.7-2.85,6.84-8.91,6.84a14.37,14.37,0,0,1-6.25-1.35Z"/><path class="cls-6" d="M752.89,318.23H747V314h17v4.2h-6v17.88h-5Z"/><path class="cls-6" d="M771.59,314.05v22.07h-5V314Z"/><path class="cls-6" d="M775.91,314.05h5v17.88h8.78v4.19H775.9Z"/><path class="cls-6" d="M792.64,314.06h5v17.88h8.78v4.19H792.63Z"/><path class="cls-6" d="M814.38,314.07v22.07h-5V314.07Z"/><path class="cls-6" d="M818.69,336.14V314.07h5.83l4.58,8.09a63.8,63.8,0,0,1,3.6,7.56h.1a79,79,0,0,1-.42-9.2v-6.45H837v22.07h-5.24L827,327.64a81.82,81.82,0,0,1-3.83-7.8l-.09,0c.12,2.92.19,6,.19,9.63v6.65Z"/><path class="cls-6" d="M859.71,335.15a24.44,24.44,0,0,1-7.36,1.24c-4,0-6.94-1-9-3a10.71,10.71,0,0,1-3.11-8c0-7.33,5.38-11.52,12.61-11.52A15.27,15.27,0,0,1,859,315l-1,4a12.29,12.29,0,0,0-5.14-.95c-4.16,0-7.31,2.35-7.31,7.13,0,4.56,2.84,7.24,6.94,7.25a6.79,6.79,0,0,0,2.45-.33v-4.62H851.5v-3.9h8.22Z"/><path class="cls-6" d="M588.62,366l-2.12,6.43h-2.73l7-20.45h3.18l7,20.46h-2.82L595.88,366Zm6.71-2.06-2-5.89c-.45-1.34-.75-2.55-1.06-3.74h-.06c-.3,1.22-.64,2.46-1,3.71l-2,5.91Z"/><path class="cls-6" d="M603.52,369.22a9.38,9.38,0,0,0,4.74,1.34c2.7,0,4.28-1.42,4.28-3.49,0-1.91-1.09-3-3.86-4.07-3.33-1.18-5.4-2.91-5.39-5.8,0-3.18,2.64-5.55,6.62-5.55a9.24,9.24,0,0,1,4.52,1l-.73,2.15a8.2,8.2,0,0,0-3.89-1c-2.79,0-3.85,1.67-3.85,3.06,0,1.91,1.24,2.85,4.06,4,3.46,1.34,5.22,3,5.22,6,0,3.16-2.34,5.89-7.17,5.89a10.69,10.69,0,0,1-5.22-1.31Z"/><path class="cls-6" d="M629.44,362.86h-8v7.37h8.86v2.21H618.84l0-20.46h11v2.21h-8.4v6.46h8Z"/><path class="cls-6" d="M631.83,376.19a43.15,43.15,0,0,0,1.82-7.25l3-.31a37.22,37.22,0,0,1-2.89,7.38Z"/><path class="cls-6" d="M645.43,372.46v-1.64l2.09-2c5-4.79,7.32-7.34,7.35-10.31,0-2-1-3.86-3.91-3.86a6.72,6.72,0,0,0-4.19,1.67l-.85-1.89a8.69,8.69,0,0,1,5.59-2c4.24,0,6,2.92,6,5.74,0,3.65-2.64,6.59-6.8,10.59l-1.58,1.46v.06H658v2.22Z"/><path class="cls-6" d="M669.25,372.48V367.1h-9.17v-1.76l8.81-12.59h2.89V365h2.76v2.1h-2.76v5.37Zm0-7.47v-6.59c0-1,0-2.06.1-3.09h-.09c-.61,1.15-1.1,2-1.64,2.91L662.79,365V365Z"/><path class="cls-6" d="M688.34,355h-7.52l-.77,5.07a10.84,10.84,0,0,1,1.61-.12,8.31,8.31,0,0,1,4.25,1.06,5.62,5.62,0,0,1,2.82,5.07c0,3.86-3.07,6.74-7.35,6.74a9.71,9.71,0,0,1-4.91-1.22l.67-2a8.87,8.87,0,0,0,4.21,1.09c2.52,0,4.68-1.63,4.68-4.28S684.3,362,680.36,362a20.4,20.4,0,0,0-2.73.21l1.28-9.47h9.43Z"/><path class="cls-6" d="M705.24,362.42c0,6.71-2.49,10.41-6.86,10.41-3.86,0-6.47-3.62-6.52-10.14s2.85-10.26,6.86-10.26S705.24,356.14,705.24,362.42Zm-10.71.3c0,5.13,1.57,8,4,8,2.73,0,4-3.18,4-8.22,0-4.86-1.24-8-4-8.05C696.23,354.49,694.53,357.35,694.53,362.72Z"/><path class="cls-6" d="M715.08,352h2.64v9.86h.09c.55-.79,1.1-1.52,1.61-2.18l6.26-7.68H729l-7.41,8.68,8,11.78h-3.13l-6.73-10.05-1.94,2.24v7.8h-2.65Z"/><path class="cls-6" d="M730.6,372.63l1.88-2.67a11.07,11.07,0,0,1-2.69-7.56c0-6.46,4.1-10.68,9.44-10.68a8.6,8.6,0,0,1,5.1,1.62l1.79-2.46,1.61,1.09-1.88,2.61a11.08,11.08,0,0,1,2.63,7.53c0,7.13-4.4,10.74-9.29,10.74a8.76,8.76,0,0,1-5.19-1.64l-1.91,2.61ZM743,355.28a5.75,5.75,0,0,0-3.82-1.43c-4.46,0-6.71,4.12-6.71,8.4a10.37,10.37,0,0,0,1.51,5.5l0,0Zm-7.71,14a5.19,5.19,0,0,0,3.82,1.46c4.28,0,6.65-3.91,6.65-8.52a10,10,0,0,0-1.42-5.31h-.09Z"/><path class="cls-6" d="M751.91,352.34a26,26,0,0,1,4.83-.42c2.64,0,4.34.45,5.61,1.49a4.27,4.27,0,0,1,1.7,3.61,4.87,4.87,0,0,1-3.46,4.49v.06a5.27,5.27,0,0,1,4.21,5.13,5.53,5.53,0,0,1-1.73,4.1c-1.43,1.3-3.73,1.91-7.07,1.91a30.89,30.89,0,0,1-4.1-.25Zm2.63,18.18a14.38,14.38,0,0,0,2.22.12c2.73,0,5.25-1,5.25-4,0-2.79-2.39-3.95-5.28-3.95h-2.18Zm0-9.8H757c2.79,0,4.43-1.46,4.43-3.43,0-2.4-1.82-3.34-4.49-3.34a11.56,11.56,0,0,0-2.34.18Z"/><path class="cls-6" d="M779,363h-8v7.38h8.86v2.22h-11.5V352.07h11v2.22H771v6.47h8Z"/><path class="cls-6" d="M783.28,372.54V352.08h2.88l6.55,10.36a57,57,0,0,1,3.67,6.65l.06,0c-.24-2.74-.3-5.22-.3-8.41v-8.56h2.49l0,20.46H796l-6.48-10.39a62.9,62.9,0,0,1-3.82-6.83l-.1,0c.15,2.58.21,5,.21,8.44v8.74Z"/><path class="cls-6" d="M805.9,352.1v8.55h9.9V352.1h2.67v20.46h-2.67V363h-9.89v9.59h-2.64V352.09Z"/><path class="cls-6" d="M826.34,366.13l-2.13,6.43h-2.73l7-20.45h3.19l7,20.46h-2.82l-2.19-6.44Zm6.71-2.06-2-5.89c-.46-1.34-.76-2.55-1.06-3.73h-.06c-.31,1.21-.64,2.45-1,3.7l-2,5.91Z"/><path class="cls-6" d="M844.48,372.57l-6.66-20.46h2.85l3.18,10.07c.88,2.77,1.64,5.25,2.18,7.65h.06c.58-2.37,1.43-4.94,2.35-7.61l3.46-10.11h2.82l-7.32,20.45Z"/><path class="cls-6" d="M856.92,372.58l0-20.46h2.88l6.55,10.36a58.57,58.57,0,0,1,3.67,6.65l.06,0c-.24-2.73-.3-5.22-.3-8.41v-8.56h2.49v20.46h-2.67l-6.49-10.39a64.63,64.63,0,0,1-3.82-6.83l-.09,0c.15,2.58.21,5,.21,8.44v8.74Z"/><path class="cls-6" d="M584.25,406v-1.51l1.93-1.87c4.64-4.42,6.74-6.77,6.77-9.5a3.25,3.25,0,0,0-3.61-3.56,6.19,6.19,0,0,0-3.86,1.54l-.78-1.74a8,8,0,0,1,5.15-1.84c3.91,0,5.56,2.69,5.56,5.29,0,3.35-2.44,6.06-6.27,9.75l-1.45,1.34v.06h8.16v2Z"/><path class="cls-6" d="M603.93,390.1h0l-3.16,1.7-.48-1.87,4-2.12h2.1V406h-2.38Z"/><path class="cls-6" d="M613.12,404.53a1.66,1.66,0,0,1,1.68-1.76,1.76,1.76,0,1,1-1.68,1.76Z"/><path class="cls-6" d="M629.37,387.15h2.43v12.61c0,5-2.46,6.54-5.71,6.54a8,8,0,0,1-2.6-.45l.37-2a5.92,5.92,0,0,0,2,.36c2.18,0,3.47-1,3.47-4.67Z"/><path class="cls-6" d="M638.89,400.07l-2,5.93h-2.52l6.42-18.84h2.93L650.18,406h-2.6l-2-5.92Zm6.18-1.9-1.84-5.42c-.42-1.23-.7-2.35-1-3.44h-.06c-.28,1.12-.59,2.27-1,3.41l-1.85,5.45Z"/><path class="cls-6" d="M652.94,406V387.16h2.66l6,9.53a52.36,52.36,0,0,1,3.38,6.13l.06,0c-.22-2.52-.28-4.81-.28-7.75v-7.88h2.29V406h-2.46l-6-9.56a60.82,60.82,0,0,1-3.52-6.29l-.08,0c.14,2.37.19,4.64.19,7.77V406Z"/><path class="cls-6" d="M673.78,387.18v11.15c0,4.22,1.87,6,4.39,6,2.79,0,4.58-1.84,4.58-6V387.18h2.46v11c0,5.79-3.05,8.16-7.13,8.16-3.86,0-6.76-2.21-6.76-8.06v-11.1Z"/><path class="cls-6" d="M691.52,400.1l-2,5.93H687l6.41-18.83h2.94L702.81,406h-2.6l-2-5.93Zm6.18-1.9-1.85-5.42c-.42-1.23-.69-2.35-1-3.44h-.06c-.28,1.12-.59,2.26-1,3.41L692,398.2Z"/><path class="cls-6" d="M705.58,387.45a23.83,23.83,0,0,1,4.67-.39c2.6,0,4.28.47,5.45,1.54a4.69,4.69,0,0,1,1.48,3.58,5,5,0,0,1-3.55,4.8v.09c1.45.5,2.32,1.84,2.76,3.8a30.72,30.72,0,0,0,1.45,5.17h-2.51a24,24,0,0,1-1.26-4.5c-.56-2.6-1.56-3.58-3.77-3.66H708V406h-2.43ZM708,396h2.49c2.6,0,4.25-1.42,4.25-3.58,0-2.43-1.76-3.49-4.33-3.52a10.25,10.25,0,0,0-2.41.22Z"/><path class="cls-6" d="M718.93,409.48a41,41,0,0,0,1.68-6.68l2.74-.28a33.82,33.82,0,0,1-2.66,6.79Z"/><path class="cls-6" d="M731.45,406.05v-1.51l1.93-1.87c4.64-4.42,6.74-6.76,6.77-9.5a3.24,3.24,0,0,0-3.6-3.55,6.13,6.13,0,0,0-3.86,1.53l-.78-1.73a8,8,0,0,1,5.14-1.85c3.92,0,5.56,2.69,5.56,5.29,0,3.35-2.43,6.07-6.26,9.75L734.89,404V404h8.16v2Z"/><path class="cls-6" d="M757.87,396.78c0,6.18-2.3,9.59-6.32,9.59-3.55,0-5.95-3.33-6-9.34s2.64-9.45,6.33-9.45S757.87,391,757.87,396.78Zm-9.87.28c0,4.72,1.45,7.41,3.69,7.41,2.51,0,3.72-2.94,3.72-7.58,0-4.47-1.14-7.41-3.69-7.41C749.57,389.48,748,392.11,748,397.06Z"/><path class="cls-6" d="M760.13,406.06v-1.5l1.93-1.88c4.64-4.41,6.74-6.76,6.77-9.5a3.25,3.25,0,0,0-3.61-3.55,6.19,6.19,0,0,0-3.86,1.54l-.78-1.74a8,8,0,0,1,5.15-1.84c3.91,0,5.56,2.69,5.56,5.29,0,3.35-2.44,6.06-6.27,9.75L763.57,404V404h8.16v2Z"/><path class="cls-6" d="M786.54,396.8c0,6.18-2.29,9.59-6.32,9.58-3.55,0-6-3.33-6-9.34s2.63-9.44,6.32-9.44S786.55,391,786.54,396.8Zm-9.86.27c0,4.73,1.45,7.41,3.68,7.41,2.52,0,3.72-2.93,3.72-7.57,0-4.47-1.14-7.41-3.68-7.41C778.25,389.5,776.68,392.12,776.68,397.07Z"/><path class="cls-6" d="M1018,170.16h5v9.75h.1c.49-.85,1-1.63,1.51-2.42l5-7.33h6.13l-7.31,9.4,7.69,12.67h-5.83l-5.4-9.53L1023,185v7.21h-5Z"/><path class="cls-6" d="M1043.09,170.18v12.7c0,3.8,1.43,5.73,4,5.74s4.06-1.84,4.06-5.73V170.18h5v12.38c0,6.81-3.45,10.05-9.21,10.05-5.56,0-8.84-3.08-8.83-10.12V170.17Z"/><path class="cls-6" d="M1060.43,192.26V170.19h5.83l4.58,8.09a63.93,63.93,0,0,1,3.6,7.57h.1a81.54,81.54,0,0,1-.42-9.21v-6.45h4.59v22.07h-5.25l-4.71-8.51a84.22,84.22,0,0,1-3.82-7.8l-.1,0c.13,2.92.19,6,.19,9.63v6.65Z"/><path class="cls-6" d="M1083.19,187.13a12.67,12.67,0,0,0,5.53,1.38c2.29,0,3.51-.95,3.51-2.39s-1-2.16-3.7-3.11c-3.67-1.28-6.06-3.31-6.06-6.52,0-3.77,3.15-6.65,8.36-6.65a13.48,13.48,0,0,1,5.63,1.12l-1.12,4a10.38,10.38,0,0,0-4.61-1.05c-2.16,0-3.21,1-3.21,2.12,0,1.41,1.24,2,4.09,3.12,3.89,1.44,5.73,3.47,5.72,6.58,0,3.7-2.85,6.84-8.9,6.84a14.42,14.42,0,0,1-6.26-1.35Z"/><path class="cls-6" d="M1105,174.4H1099v-4.19h17v4.19h-6v17.88h-5Z"/><path class="cls-6" d="M1123.63,170.22v12.71c0,3.79,1.43,5.73,4,5.73s4.06-1.83,4.06-5.73v-12.7h5v12.38c0,6.81-3.45,10-9.21,10-5.56,0-8.84-3.08-8.83-10.12V170.22Z"/><path class="cls-6" d="M1141,170.53a44,44,0,0,1,6.75-.46c4.19,0,6.91.76,9,2.36,2.29,1.71,3.73,4.43,3.73,8.32,0,4.23-1.55,7.14-3.68,8.94-2.32,1.93-5.86,2.85-10.18,2.84a42.15,42.15,0,0,1-5.67-.33Zm5,18a9.11,9.11,0,0,0,1.74.1c4.52,0,7.47-2.45,7.47-7.73,0-4.58-2.65-7-6.94-7a10.26,10.26,0,0,0-2.26.2Z"/><path class="cls-6" d="M1163.93,187.17a12.67,12.67,0,0,0,5.53,1.38c2.29,0,3.5-1,3.5-2.39s-1-2.16-3.69-3.11c-3.67-1.28-6.06-3.31-6.06-6.52,0-3.76,3.15-6.65,8.36-6.64a13.54,13.54,0,0,1,5.63,1.11l-1.12,4a10.53,10.53,0,0,0-4.62-1.05c-2.16,0-3.2,1-3.21,2.13,0,1.41,1.25,2,4.1,3.11,3.89,1.44,5.72,3.48,5.72,6.59,0,3.7-2.85,6.84-8.91,6.83a14.38,14.38,0,0,1-6.25-1.34Z"/><path class="cls-6" d="M1185.71,174.45h-5.93v-4.19h17v4.19h-6v17.88h-5Z"/><path class="cls-6" d="M1204.4,170.27v22.07h-5V170.26Z"/><path class="cls-6" d="M1208.72,170.27h5v17.88h8.78v4.19h-13.79Z"/><path class="cls-6" d="M1225.45,170.28h5v17.88h8.78v4.2h-13.79Z"/><path class="cls-6" d="M1247.19,170.29v22.07h-5V170.29Z"/><path class="cls-6" d="M1251.5,192.36V170.29h5.83l4.58,8.09a63.06,63.06,0,0,1,3.6,7.56h.1a81.25,81.25,0,0,1-.42-9.2V170.3h4.59l0,22.07h-5.23l-4.72-8.52a82.81,82.81,0,0,1-3.82-7.79l-.1,0c.13,2.91.19,6,.19,9.63v6.65Z"/><path class="cls-6" d="M1292.53,191.37a24.89,24.89,0,0,1-7.37,1.24c-4,0-6.94-1-9-3a10.71,10.71,0,0,1-3.11-8c0-7.33,5.38-11.52,12.62-11.52a15.07,15.07,0,0,1,6.12,1.09l-1,4a12.29,12.29,0,0,0-5.14-.95c-4.16,0-7.3,2.35-7.31,7.13,0,4.55,2.85,7.24,6.94,7.24a6.91,6.91,0,0,0,2.46-.32v-4.62h-3.41v-3.9h8.21Z"/><path class="cls-6" d="M1018.14,208.46a27.72,27.72,0,0,1,5.07-.42c2.82,0,4.64.52,5.91,1.67a5.13,5.13,0,0,1,1.61,3.89,5.37,5.37,0,0,1-3.86,5.22v.09c1.58.55,2.52,2,3,4.13a32.91,32.91,0,0,0,1.58,5.61h-2.73a25.32,25.32,0,0,1-1.36-4.88c-.61-2.83-1.7-3.89-4.1-4h-2.49v8.86h-2.64Zm2.63,9.32h2.7c2.83,0,4.62-1.55,4.62-3.89,0-2.64-1.91-3.79-4.7-3.82a10.92,10.92,0,0,0-2.61.24Z"/><path class="cls-6" d="M1045.05,219.07h-8v7.37H1046v2.21h-11.5V208.2h11v2.21h-8.41v6.46h8Z"/><path class="cls-6" d="M1065,227.76a18.91,18.91,0,0,1-6.28,1.12,9.6,9.6,0,0,1-10.5-10.32c0-6.1,4.23-10.56,11.09-10.56a12.5,12.5,0,0,1,5.09.95l-.63,2.15a10.58,10.58,0,0,0-4.53-.88c-5,0-8.22,3.09-8.23,8.22s3.13,8.25,7.89,8.26a8.49,8.49,0,0,0,3.52-.55v-6.1h-4.16v-2.12H1065Z"/><path class="cls-6" d="M1071.64,208.22v12.11c0,4.58,2,6.53,4.76,6.53,3,0,5-2,5-6.52V208.23h2.67v11.93c0,6.28-3.31,8.86-7.74,8.85-4.19,0-7.35-2.4-7.34-8.74V208.22Z"/><path class="cls-6" d="M1088.25,225.47a9.38,9.38,0,0,0,4.74,1.34c2.7,0,4.28-1.43,4.28-3.49,0-1.91-1.09-3-3.85-4.07-3.34-1.19-5.4-2.92-5.4-5.8,0-3.19,2.64-5.55,6.62-5.55a9.37,9.37,0,0,1,4.52,1l-.73,2.16a8.18,8.18,0,0,0-3.89-1c-2.79,0-3.85,1.67-3.85,3.07,0,1.91,1.24,2.85,4.06,3.95,3.46,1.33,5.22,3,5.22,6s-2.34,5.89-7.17,5.88a10.58,10.58,0,0,1-5.22-1.31Z"/><path class="cls-6" d="M1101.75,232.43a44,44,0,0,0,1.83-7.26l3-.3a37.26,37.26,0,0,1-2.88,7.38Z"/><path class="cls-6" d="M1121.15,211.46h-.06l-3.43,1.85-.51-2,4.31-2.3h2.28l0,19.73h-2.58Z"/><path class="cls-6" d="M1142.18,210.87a9.75,9.75,0,0,0-2,.12,8,8,0,0,0-6.86,7h.09a5.86,5.86,0,0,1,4.76-2.28c3.5,0,5.95,2.53,5.95,6.38,0,3.61-2.46,7-6.56,7s-7-3.28-7-8.41a12.39,12.39,0,0,1,3.34-8.89,10.7,10.7,0,0,1,6.31-2.91,11.81,11.81,0,0,1,2-.15Zm-.76,11.38c0-2.82-1.61-4.52-4.07-4.52a4.41,4.41,0,0,0-3.82,2.42,2.43,2.43,0,0,0-.31,1.19c.06,3.24,1.55,5.64,4.34,5.64C1139.87,227,1141.42,225.07,1141.42,222.25Z"/><path class="cls-6" d="M1152.29,211.48h-.06l-3.43,1.85-.52-2,4.31-2.31h2.28v19.72h-2.58Z"/><path class="cls-6" d="M1175.16,218.66c0,6.71-2.49,10.41-6.86,10.4-3.85,0-6.46-3.61-6.52-10.14s2.86-10.25,6.86-10.25C1172.8,208.67,1175.17,212.38,1175.16,218.66Zm-10.71.3c0,5.12,1.57,8,4,8,2.73,0,4-3.18,4-8.22,0-4.86-1.24-8.05-4-8.05C1166.15,210.73,1164.45,213.58,1164.45,219Z"/><path class="cls-6" d="M1187.54,220.79h.06c.37-.52.88-1.15,1.31-1.67l4.31-5.07h3.22l-5.68,6,6.46,8.66H1194l-5.06-7-1.37,1.52v5.52h-2.64V207.19h2.64Z"/><path class="cls-6" d="M1209,214.79l1.28-1.82,1.18.82-1.28,1.88a7.61,7.61,0,0,1,2.22,5.62c0,5.4-3.74,7.8-7.17,7.79a6.83,6.83,0,0,1-3.76-1l-1.31,1.85-1.12-.91,1.27-1.82a7.59,7.59,0,0,1-2.27-5.68c0-4.88,3.22-7.76,7.23-7.76A6.92,6.92,0,0,1,1209,214.79Zm-1.21,1.82a4,4,0,0,0-2.58-.88c-3.28,0-4.59,3-4.59,5.7a6.38,6.38,0,0,0,1.09,3.68l.06,0Zm-5.11,9.62a3.62,3.62,0,0,0,2.46.85c2.79,0,4.64-2.39,4.65-5.7a6.55,6.55,0,0,0-1-3.58h-.07Z"/><path class="cls-6" d="M1215.67,228.76c.06-1,.12-2.49.12-3.8V207.21h2.64v9.23h.06a5.47,5.47,0,0,1,5-2.7c3.64,0,6.22,3,6.18,7.5,0,5.25-3.31,7.86-6.59,7.85a5.23,5.23,0,0,1-4.91-2.76h-.09l-.13,2.43Zm2.76-5.89a5,5,0,0,0,.12,1,4.13,4.13,0,0,0,4,3.13c2.79,0,4.46-2.27,4.46-5.64,0-3-1.51-5.47-4.37-5.47a4.24,4.24,0,0,0-4.06,3.28,4.58,4.58,0,0,0-.16,1.09Z"/><path class="cls-6" d="M1234.54,221.91c.06,3.61,2.37,5.1,5,5.1a9.63,9.63,0,0,0,4.07-.76l.45,1.92a12,12,0,0,1-4.89.9c-4.52,0-7.22-3-7.21-7.41s2.61-7.92,6.89-7.91c4.79,0,6.07,4.22,6.07,6.92a11.82,11.82,0,0,1-.1,1.24Zm7.84-1.91c0-1.7-.7-4.34-3.7-4.34-2.71,0-3.89,2.48-4.1,4.34Z"/><path class="cls-6" d="M1248.26,218.06c0-1.52,0-2.76-.12-4h2.37l.15,2.42h.06a5.39,5.39,0,0,1,4.86-2.75c2,0,5.19,1.21,5.18,6.25v8.77h-2.67v-8.47c0-2.36-.87-4.34-3.39-4.34a3.81,3.81,0,0,0-3.59,2.73,3.88,3.88,0,0,0-.18,1.25v8.83h-2.67Z"/><path class="cls-6" d="M1265.11,207.24h2.67v9.16h.06a5,5,0,0,1,1.92-1.88,5.44,5.44,0,0,1,2.73-.75c2,0,5.13,1.21,5.13,6.28v8.74h-2.67v-8.44c0-2.37-.87-4.37-3.39-4.37a3.83,3.83,0,0,0-3.58,2.67,3.06,3.06,0,0,0-.19,1.27v8.87h-2.67Z"/><path class="cls-6" d="M1290.07,228.8l-.21-1.85h-.09a5.48,5.48,0,0,1-4.49,2.18,4.18,4.18,0,0,1-4.49-4.22c0-3.55,3.16-5.49,8.83-5.46v-.3c0-1.22-.33-3.4-3.33-3.4a7.21,7.21,0,0,0-3.83,1.09l-.61-1.76a9.14,9.14,0,0,1,4.83-1.31c4.49,0,5.58,3.07,5.58,6v5.49a20.94,20.94,0,0,0,.24,3.52Zm-.39-7.5c-2.91-.06-6.22.45-6.22,3.31a2.36,2.36,0,0,0,2.52,2.55,3.67,3.67,0,0,0,3.55-2.46,2.82,2.82,0,0,0,.15-.85Z"/><path class="cls-6" d="M1297.36,214.11l2.88,8.26a39,39,0,0,1,1.18,3.76h.09c.34-1.21.76-2.42,1.25-3.76l2.86-8.25h2.79l-5.78,14.68h-2.55l-5.57-14.69Z"/><path class="cls-6" d="M1310.92,218.1c0-1.52,0-2.77-.12-4h2.37l.15,2.43h.06a5.4,5.4,0,0,1,4.86-2.76c2,0,5.19,1.22,5.19,6.25v8.78h-2.67v-8.46c0-2.37-.87-4.34-3.39-4.34a3.77,3.77,0,0,0-3.58,2.72,3.65,3.65,0,0,0-.19,1.25v8.83h-2.67Z"/><path class="cls-6" d="M1017.06,262.19v-1.51l1.93-1.88c4.64-4.41,6.74-6.76,6.77-9.5a3.24,3.24,0,0,0-3.6-3.55,6.19,6.19,0,0,0-3.86,1.54l-.78-1.74a8,8,0,0,1,5.14-1.84c3.91,0,5.56,2.69,5.56,5.29,0,3.35-2.44,6.06-6.27,9.75l-1.45,1.34v.06h8.16v2Z"/><path class="cls-6" d="M1031.59,260.74a1.66,1.66,0,0,1,1.68-1.76,1.76,1.76,0,1,1-1.68,1.76Z"/><path class="cls-6" d="M1047.84,243.36h2.43V256c0,5-2.47,6.54-5.71,6.54a8,8,0,0,1-2.6-.45l.37-2a5.88,5.88,0,0,0,2,.36c2.18,0,3.46-1,3.46-4.67Z"/><path class="cls-6" d="M1057.36,256.28l-2,5.93h-2.51l6.41-18.84h2.94l6.41,18.84h-2.6l-2-5.92Zm6.18-1.9L1061.7,249c-.42-1.23-.7-2.35-1-3.44h-.06c-.28,1.12-.59,2.27-1,3.41l-1.85,5.45Z"/><path class="cls-6" d="M1071.42,262.22V243.38h2.65l6,9.53a55.48,55.48,0,0,1,3.38,6.13l0,0c-.22-2.52-.27-4.81-.27-7.75v-7.88h2.29v18.84h-2.46l-6-9.56a59,59,0,0,1-3.52-6.29l-.09,0c.14,2.38.2,4.65.2,7.78v8.05Z"/><path class="cls-6" d="M1092.25,243.39v11.15c0,4.22,1.87,6,4.38,6,2.8,0,4.59-1.84,4.59-6V243.39h2.45v11c0,5.79-3,8.16-7.13,8.16-3.86,0-6.77-2.21-6.76-8.06v-11.1Z"/><path class="cls-6" d="M1110,256.31l-2,5.93h-2.51l6.41-18.83h2.93l6.42,18.84h-2.6l-2-5.93Zm6.18-1.9-1.84-5.42c-.42-1.23-.7-2.35-1-3.44h0c-.28,1.12-.59,2.26-1,3.41l-1.84,5.45Z"/><path class="cls-6" d="M1124.06,243.66a24.63,24.63,0,0,1,4.67-.39c2.6,0,4.27.47,5.45,1.54a4.69,4.69,0,0,1,1.48,3.58,5,5,0,0,1-3.56,4.8v.09c1.46.5,2.32,1.84,2.77,3.8a29.75,29.75,0,0,0,1.45,5.17h-2.52a25.12,25.12,0,0,1-1.25-4.5c-.56-2.6-1.57-3.58-3.77-3.67h-2.3v8.17h-2.43Zm2.42,8.58H1129c2.6,0,4.25-1.42,4.25-3.58,0-2.43-1.76-3.49-4.33-3.52a10.14,10.14,0,0,0-2.4.22Z"/><path class="cls-6" d="M1137.4,265.69a39,39,0,0,0,1.68-6.68l2.74-.28a33.24,33.24,0,0,1-2.66,6.79Z"/><path class="cls-6" d="M1149.93,262.26v-1.51l1.93-1.87c4.64-4.42,6.74-6.76,6.77-9.5a3.24,3.24,0,0,0-3.61-3.55,6.08,6.08,0,0,0-3.85,1.53l-.79-1.73a7.94,7.94,0,0,1,5.15-1.84c3.91,0,5.56,2.68,5.56,5.28,0,3.36-2.44,6.07-6.27,9.75l-1.45,1.34v.06h8.16v2Z"/><path class="cls-6" d="M1176.34,253c0,6.18-2.29,9.59-6.32,9.59-3.55,0-6-3.33-6-9.34s2.63-9.45,6.32-9.45S1176.35,247.21,1176.34,253Zm-9.86.28c0,4.72,1.45,7.41,3.68,7.41,2.52,0,3.72-2.94,3.72-7.58,0-4.47-1.14-7.4-3.68-7.41C1168.05,245.69,1166.48,248.32,1166.48,253.27Z"/><path class="cls-6" d="M1178.6,262.28v-1.51l1.93-1.88c4.65-4.41,6.74-6.76,6.77-9.5a3.24,3.24,0,0,0-3.6-3.55,6.19,6.19,0,0,0-3.86,1.54l-.78-1.74a8,8,0,0,1,5.14-1.84c3.92,0,5.56,2.69,5.56,5.29,0,3.35-2.43,6.06-6.26,9.75l-1.46,1.34v.06h8.16v2Z"/><path class="cls-6" d="M1205,253c0,6.18-2.3,9.59-6.32,9.58-3.55,0-6-3.33-6-9.34s2.64-9.44,6.33-9.44S1205,247.22,1205,253Zm-9.87.27c0,4.73,1.45,7.41,3.69,7.41,2.51,0,3.72-2.93,3.72-7.57,0-4.47-1.14-7.41-3.68-7.41C1196.72,245.71,1195.15,248.33,1195.15,253.28Z"/><line class="cls-7" x1="958.54" y1="100.41" x2="945.65" y2="116.78"/><line class="cls-7" x1="972.8" y1="116.78" x2="958.85" y2="100.43"/></svg>
